<svg xmlns="http://www.w3.org/2000/svg" width="636" height="332">
  <defs>
    <linearGradient id="techShift" gradientUnits="userSpaceOnUse" x1="0" y1="0" x2="400" y2="0" spreadMethod="repeat">
      <stop offset="0%" stop-color="#22d3ee" />
      <stop offset="33%" stop-color="#3b82f6" />
      <stop offset="66%" stop-color="#6366f1" />
      <stop offset="100%" stop-color="#22d3ee" />

      <animateTransform attributeName="gradientTransform" type="translate" from="0 0" to="400 0" dur="40s"
        repeatCount="indefinite" />
    </linearGradient>
  </defs>

  <g>
    <text x="48" y="100" font-size="21" font-weight="600" font-family="Arial, Helvetica, sans-serif"
      fill="url(#techShift)">
      Junior Developer
    </text>
    <g>
      <!-- Linkedin -->
      <g transform="translate(530,78) scale(0.6)">
        <path fill="#3D86FF"
          d="M42,37c0,2.762-2.238,5-5,5H11c-2.761,0-5-2.238-5-5V11c0-2.762,2.239-5,5-5h26c2.762,0,5,2.238,5,5V37z" />
        <path fill="#FFF"
          d="M12 19H17V36H12zM14.485 17h-.028C12.965 17 12 15.888 12 14.499 12 13.08 12.995 12 14.514 12c1.521 0 2.458 1.08 2.486 2.499C17 15.887 16.035 17 14.485 17zM36 36h-5v-9.099c0-2.198-1.225-3.698-3.192-3.698-1.501 0-2.313 1.012-2.707 1.99C24.957 25.543 25 26.511 25 27v9h-5V19h5v2.616C25.721 20.5 26.85 19 29.738 19c3.578 0 6.261 2.25 6.261 7.274L36 36 36 36z" />
      </g>

      <!-- Gmail -->
      <g transform="translate(570,80) scale(0.05)">
        <g fill="none" fill-rule="evenodd">
          <g fill-rule="nonzero">
            <path d="M34.91 448.818h81.454V251L0 163.727V413.91c0 19.287 15.622 34.91 34.91 34.91z" fill="#4285f4" />
            <path d="M395.636 448.818h81.455c19.287 0 34.909-15.622 34.909-34.909V163.727L395.636 251z"
              fill="#34a853" />
            <path d="M395.636 99.727V251L512 163.727v-46.545c0-43.142-49.25-67.782-83.782-41.891z" fill="#fbbc04" />
          </g>
          <path d="M116.364 251V99.727L256 204.455 395.636 99.727V251L256 355.727z" fill="#ea4335" />
          <path d="M0 117.182v46.545L116.364 251V99.727L83.782 75.291C49.25 49.4 0 74.04 0 117.18z" fill="#c5221f"
            fill-rule="nonzero" />
        </g>
      </g>

      <!-- Instagram -->
      <g transform="translate(610,82) scale(0.007)">
        <defs>
          <radialGradient id="0" cx="217.76" cy="3290.99" r="4271.92" gradientUnits="userSpaceOnUse">
            <stop offset=".09" stop-color="#fa8f21" />
            <stop offset=".78" stop-color="#d82d7e" />
          </radialGradient>
          <radialGradient id="1" cx="2330.61" cy="3182.95" r="3759.33" gradientUnits="userSpaceOnUse">
            <stop offset=".64" stop-color="#8c3aaa" stop-opacity="0" />
            <stop offset="1" stop-color="#8c3aaa" />
          </radialGradient>
        </defs>
        <path
          d="M853.2,3352.8c-200.1-9.1-308.8-42.4-381.1-70.6-95.8-37.3-164.1-81.7-236-153.5S119.7,2988.6,82.6,2892.8c-28.2-72.3-61.5-181-70.6-381.1C2,2295.4,0,2230.5,0,1682.5s2.2-612.8,11.9-829.3C21,653.1,54.5,544.6,82.5,472.1,119.8,376.3,164.3,308,236,236c71.8-71.8,140.1-116.4,236-153.5C544.3,54.3,653,21,853.1,11.9,1069.5,2,1134.5,0,1682.3,0c548,0,612.8,2.2,829.3,11.9,200.1,9.1,308.6,42.6,381.1,70.6,95.8,37.1,164.1,81.7,236,153.5s116.2,140.2,153.5,236c28.2,72.3,61.5,181,70.6,381.1,9.9,216.5,11.9,281.3,11.9,829.3,0,547.8-2,612.8-11.9,829.3-9.1,200.1-42.6,308.8-70.6,381.1-37.3,95.8-81.7,164.1-153.5,235.9s-140.2,116.2-236,153.5c-72.3,28.2-181,61.5-381.1,70.6-216.3,9.9-281.3,11.9-829.3,11.9-547.8,0-612.8-1.9-829.1-11.9"
          fill="url(#0)" />
        <path
          d="M853.2,3352.8c-200.1-9.1-308.8-42.4-381.1-70.6-95.8-37.3-164.1-81.7-236-153.5S119.7,2988.6,82.6,2892.8c-28.2-72.3-61.5-181-70.6-381.1C2,2295.4,0,2230.5,0,1682.5s2.2-612.8,11.9-829.3C21,653.1,54.5,544.6,82.5,472.1,119.8,376.3,164.3,308,236,236c71.8-71.8,140.1-116.4,236-153.5C544.3,54.3,653,21,853.1,11.9,1069.5,2,1134.5,0,1682.3,0c548,0,612.8,2.2,829.3,11.9,200.1,9.1,308.6,42.6,381.1,70.6,95.8,37.1,164.1,81.7,236,153.5s116.2,140.2,153.5,236c28.2,72.3,61.5,181,70.6,381.1,9.9,216.5,11.9,281.3,11.9,829.3,0,547.8-2,612.8-11.9,829.3-9.1,200.1-42.6,308.8-70.6,381.1-37.3,95.8-81.7,164.1-153.5,235.9s-140.2,116.2-236,153.5c-72.3,28.2-181,61.5-381.1,70.6-216.3,9.9-281.3,11.9-829.3,11.9-547.8,0-612.8-1.9-829.1-11.9"
          fill="url(#1)" />
        <path
          d="M1269.25,1689.52c0-230.11,186.49-416.7,416.6-416.7s416.7,186.59,416.7,416.7-186.59,416.7-416.7,416.7-416.6-186.59-416.6-416.7m-225.26,0c0,354.5,287.36,641.86,641.86,641.86s641.86-287.36,641.86-641.86-287.36-641.86-641.86-641.86S1044,1335,1044,1689.52m1159.13-667.31a150,150,0,1,0,150.06-149.94h-0.06a150.07,150.07,0,0,0-150,149.94M1180.85,2707c-121.87-5.55-188.11-25.85-232.13-43-58.36-22.72-100-49.78-143.78-93.5s-70.88-85.32-93.5-143.68c-17.16-44-37.46-110.26-43-232.13-6.06-131.76-7.27-171.34-7.27-505.15s1.31-373.28,7.27-505.15c5.55-121.87,26-188,43-232.13,22.72-58.36,49.78-100,93.5-143.78s85.32-70.88,143.78-93.5c44-17.16,110.26-37.46,232.13-43,131.76-6.06,171.34-7.27,505-7.27S2059.13,666,2191,672c121.87,5.55,188,26,232.13,43,58.36,22.62,100,49.78,143.78,93.5s70.78,85.42,93.5,143.78c17.16,44,37.46,110.26,43,232.13,6.06,131.87,7.27,171.34,7.27,505.15s-1.21,373.28-7.27,505.15c-5.55,121.87-25.95,188.11-43,232.13-22.72,58.36-49.78,100-93.5,143.68s-85.42,70.78-143.78,93.5c-44,17.16-110.26,37.46-232.13,43-131.76,6.06-171.34,7.27-505.15,7.27s-373.28-1.21-505-7.27M1170.5,447.09c-133.07,6.06-224,27.16-303.41,58.06-82.19,31.91-151.86,74.72-221.43,144.18S533.39,788.47,501.48,870.76c-30.9,79.46-52,170.34-58.06,303.41-6.16,133.28-7.57,175.89-7.57,515.35s1.41,382.07,7.57,515.35c6.06,133.08,27.16,223.95,58.06,303.41,31.91,82.19,74.62,152,144.18,221.43s139.14,112.18,221.43,144.18c79.56,30.9,170.34,52,303.41,58.06,133.35,6.06,175.89,7.57,515.35,7.57s382.07-1.41,515.35-7.57c133.08-6.06,223.95-27.16,303.41-58.06,82.19-32,151.86-74.72,221.43-144.18s112.18-139.24,144.18-221.43c30.9-79.46,52.1-170.34,58.06-303.41,6.06-133.38,7.47-175.89,7.47-515.35s-1.41-382.07-7.47-515.35c-6.06-133.08-27.16-224-58.06-303.41-32-82.19-74.72-151.86-144.18-221.43S2586.8,537.06,2504.71,505.15c-79.56-30.9-170.44-52.1-303.41-58.06C2068,441,2025.41,439.52,1686,439.52s-382.1,1.41-515.45,7.57"
          fill="#ffffff" />
      </g>
    </g>

    <g>
      <text x="48" y="146" font-size="15" font-weight="400" font-family="Inter, Segoe UI, system-ui, sans-serif"
        letter-spacing="0.15" fill="#e5e7eb">
        <tspan x="48" dy="0">
          I am passionate about programming and problem-solving. I hold a Technical High
        </tspan>

        <tspan x="48" dy="26">
          School degree in Computer Science from UTFPR, Campo Mourão campus.
        </tspan>

        <tspan x="48" dy="38">
          I work as a developer focused on web applications, with 16 months of experience as
        </tspan>
        <tspan x="48" dy="26">
          a Front-End Developer at Datacampo and For Makers, contributing to the development
        </tspan>
        <tspan x="48" dy="26">
          of commercial websites and applications.
        </tspan>

        <tspan x="48" dy="38">
          I started studying programming at the age of 14, developing applications in Python
        </tspan>
        <tspan x="48" dy="26">
          with a focus on the Django framework.
        </tspan>
      </text>
    </g>
  </g>
</svg>