<svg width="100%" viewBox="0 0 1400 856" xmlns="http://www.w3.org/2000/svg">
  <!-- Languages  -->
  <g transform="translate(0,0)">
    <!-- Container -->
    <rect width="494" height="264" rx="24" fill="#020617" stroke="#1e293b" stroke-width="1" />

    <!-- Title -->
    <text x="32" y="56" font-size="28" font-weight="600" font-family="Inter, Segoe UI, system-ui, sans-serif"
      fill="#e5e7eb">
      Languages
    </text>

    <!-- Divider -->
    <line x1="32" y1="72" x2="462" y2="72" stroke="#1e293b" stroke-width="1" />

    <!-- TypeScript -->
    <g transform="translate(32,92)">
      <rect width="130" height="140" rx="16" fill="#0b0f1a" stroke="#1e293b" stroke-width="1" />
      <text x="65" y="32" text-anchor="middle" font-size="14" font-weight="500"
        font-family="Inter, Segoe UI, system-ui, sans-serif" fill="#3D86FF">
        TypeScript
      </text>
      <g transform="translate(38, 52) scale(0.4)">
        <path fill="#0b0f1a" d="M22.67 47h99.67v73.67H22.67z" />
        <path data-name="original" fill="#3D86FF"
          d="M1.5 63.91v62.5h125v-125H1.5zm100.73-5a15.56 15.56 0 017.82 4.5 20.58 20.58 0 013 4c0 .16-5.4 3.81-8.69 5.85-.12.08-.6-.44-1.13-1.23a7.09 7.09 0 00-5.87-3.53c-3.79-.26-6.23 1.73-6.21 5a4.58 4.58 0 00.54 2.34c.83 1.73 2.38 2.76 7.24 4.86 8.95 3.85 12.78 6.39 15.16 10 2.66 4 3.25 10.46 1.45 15.24-2 5.2-6.9 8.73-13.83 9.9a38.32 38.32 0 01-9.52-.1 23 23 0 01-12.72-6.63c-1.15-1.27-3.39-4.58-3.25-4.82a9.34 9.34 0 011.15-.73L82 101l3.59-2.08.75 1.11a16.78 16.78 0 004.74 4.54c4 2.1 9.46 1.81 12.16-.62a5.43 5.43 0 00.69-6.92c-1-1.39-3-2.56-8.59-5-6.45-2.78-9.23-4.5-11.77-7.24a16.48 16.48 0 01-3.43-6.25 25 25 0 01-.22-8c1.33-6.23 6-10.58 12.82-11.87a31.66 31.66 0 019.49.26zm-29.34 5.24v5.12H56.66v46.23H45.15V69.26H28.88v-5a49.19 49.19 0 01.12-5.17C29.08 59 39 59 51 59h21.83z" />
      </g>
      <line x1="25" y1="125" x2="105" y2="125" stroke="#3D86FF" stroke-width="3" stroke-linecap="round" />
    </g>

    <!-- JavaScript -->
    <g transform="translate(182,92)">
      <rect width="130" height="140" rx="16" fill="#0b0f1a" stroke="#1e293b" stroke-width="1" />
      <text x="65" y="32" text-anchor="middle" font-size="14" font-weight="500"
        font-family="Inter, Segoe UI, system-ui, sans-serif" fill="#3D86FF">
        JavaScript
      </text>
      <g transform="translate(38, 52) scale(0.4)">
        <path fill="#3D86FF" d="M1.408 1.408h125.184v125.185H1.408z" />
        <path fill="#0b0f1a"
          d="M116.347 96.736c-.917-5.711-4.641-10.508-15.672-14.981-3.832-1.761-8.104-3.022-9.377-5.926-.452-1.69-.512-2.642-.226-3.665.821-3.32 4.784-4.355 7.925-3.403 2.023.678 3.938 2.237 5.093 4.724 5.402-3.498 5.391-3.475 9.163-5.879-1.381-2.141-2.118-3.129-3.022-4.045-3.249-3.629-7.676-5.498-14.756-5.355l-3.688.477c-3.534.893-6.902 2.748-8.877 5.235-5.926 6.724-4.236 18.492 2.975 23.335 7.104 5.332 17.54 6.545 18.873 11.531 1.297 6.104-4.486 8.08-10.234 7.378-4.236-.881-6.592-3.034-9.139-6.949-4.688 2.713-4.688 2.713-9.508 5.485 1.143 2.499 2.344 3.63 4.26 5.795 9.068 9.198 31.76 8.746 35.83-5.176.165-.478 1.261-3.666.38-8.581zM69.462 58.943H57.753l-.048 30.272c0 6.438.333 12.34-.714 14.149-1.713 3.558-6.152 3.117-8.175 2.427-2.059-1.012-3.106-2.451-4.319-4.485-.333-.584-.583-1.036-.667-1.071l-9.52 5.83c1.583 3.249 3.915 6.069 6.902 7.901 4.462 2.678 10.459 3.499 16.731 2.059 4.082-1.189 7.604-3.652 9.448-7.401 2.666-4.915 2.094-10.864 2.07-17.444.06-10.735.001-21.468.001-32.237z" />
      </g>
      <line x1="25" y1="125" x2="105" y2="125" stroke="#3D86FF" stroke-width="3" stroke-linecap="round" />
    </g>

    <!-- Python -->
    <g transform="translate(332,92)">
      <rect width="130" height="140" rx="16" fill="#0b0f1a" stroke="#1e293b" stroke-width="1" />
      <text x="65" y="32" text-anchor="middle" font-size="14" font-weight="500"
        font-family="Inter, Segoe UI, system-ui, sans-serif" fill="#3D86FF">
        Python
      </text>
      <g transform="translate(42,56) scale(1.4)" xmlns="http://www.w3.org/2000/svg" width="64" height="64"
        viewBox="0 0 32 32">
        <defs>
          <linearGradient id="A" x1="811.527" y1="574.895" x2="665.255" y2="573.732" gradientUnits="userSpaceOnUse">
            <stop offset="0" stop-color="#3D86FF" />
            <stop offset="1" stop-color="#3D86FF" />
          </linearGradient>
          <linearGradient id="B" x1="862.824" y1="642.176" x2="573.276" y2="642.176" gradientUnits="userSpaceOnUse">
            <stop offset="0" stop-color="#3D86FF" />
            <stop offset="1" stop-color="#3D86FF" />
          </linearGradient>
        </defs>
        <g transform="matrix(.1617 0 0 .158089 -107.53764 -81.66187)">
          <path
            d="M716.255 544.487c0-13.623 3.653-21.034 23.822-24.563 13.693-2.4 31.25-2.7 47.627 0 12.935 2.135 23.822 11.77 23.822 24.563v44.945c0 13.182-10.57 23.98-23.822 23.98h-47.627c-16.164 0-29.787 13.782-29.787 29.363v21.564h-16.376c-13.852 0-21.917-9.988-25.305-23.964-4.57-18.776-4.376-29.963 0-47.945 3.794-15.687 15.917-23.964 29.77-23.964h65.52v-6h-47.645v-17.98z"
            fill="url(#A)" />
          <path
            d="M811.527 688.32c0 13.623-11.823 20.523-23.822 23.964-18.052 5.188-32.54 4.394-47.627 0-12.6-3.67-23.822-11.17-23.822-23.964v-44.945c0-12.935 10.782-23.98 23.822-23.98h47.627c15.864 0 29.787-13.71 29.787-29.963v-20.964h17.858c13.87 0 20.4 10.305 23.822 23.964 4.764 18.97 4.976 33.157 0 47.945-4.817 14.364-9.97 23.964-23.822 23.964H763.9v6h47.627v17.98z"
            fill="url(#B)" />
          <path
            d="M728.166 541.505c0-4.976 3.988-9 8.93-9 4.923 0 8.93 4.023 8.93 9 0 4.96-4.006 8.982-8.93 8.982-4.94 0-8.93-4.023-8.93-8.982zm53.59 149.798c0-4.96 4.006-8.982 8.93-8.982 4.94 0 8.93 4.023 8.93 8.982 0 4.976-3.988 9-8.93 9-4.923 0-8.93-4.023-8.93-9z"
            fill="#0D1117" />
        </g>
      </g>
      <line x1="25" y1="125" x2="105" y2="125" stroke="#3D86FF" stroke-width="3" stroke-linecap="round" />
    </g>
  </g>

  <!-- Database -->
  <g transform="translate(526,0)">
    <!-- Container -->
    <rect width="644" height="264" rx="24" fill="#020617" stroke="#1e293b" stroke-width="1" />

    <!-- Title -->
    <text x="32" y="56" font-size="28" font-weight="600" font-family="Inter, Segoe UI, system-ui, sans-serif"
      fill="#e5e7eb">
      Database
    </text>

    <!-- Divider -->
    <line x1="32" y1="72" x2="612" y2="72" stroke="#1e293b" stroke-width="1" />

    <!-- PostgreSQL -->
    <g transform="translate(32,92)">
      <rect width="130" height="140" rx="16" fill="#0b0f1a" stroke="#1e293b" stroke-width="1" />
      <text x="65" y="32" text-anchor="middle" font-size="14" font-weight="500"
        font-family="Inter, Segoe UI, system-ui, sans-serif" fill="#3D86FF">
        PostgreSQL
      </text>
      <g fill="none" stroke="#0b0f1a" transform="translate(40, 54) scale(1.75)">
        <path
          d="M18.983 18.636c.163-1.357.114-1.555 1.124-1.336l.257.023c.777.035 1.793-.125 2.4-.402 1.285-.596 2.047-1.592.78-1.33-2.89.596-3.1-.383-3.1-.383 3.053-4.53 4.33-10.28 3.227-11.687-3.004-3.84-8.205-2.024-8.292-1.976l-.028.005c-.57-.12-1.2-.19-1.93-.2-1.308-.02-2.3.343-3.054.914 0 0-9.277-3.822-8.846 4.807.092 1.836 2.63 13.9 5.66 10.25C8.29 15.987 9.36 14.86 9.36 14.86c.53.353 1.167.533 1.834.468l.052-.044a2.01 2.01 0 0 0 .021.518c-.78.872-.55 1.025-2.11 1.346-1.578.325-.65.904-.046 1.056.734.184 2.432.444 3.58-1.162l-.046.183c.306.245.285 1.76.33 2.842s.116 2.093.337 2.688.48 2.13 2.53 1.7c1.713-.367 3.023-.896 3.143-5.81"
          fill="#000" stroke="#000" stroke-linecap="butt" stroke-width="2.149" class="D" />
        <path
          d="M23.535 15.6c-2.89.596-3.1-.383-3.1-.383 3.053-4.53 4.33-10.28 3.228-11.687-3.004-3.84-8.205-2.023-8.292-1.976l-.028.005a10.31 10.31 0 0 0-1.929-.201c-1.308-.02-2.3.343-3.054.914 0 0-9.278-3.822-8.846 4.807.092 1.836 2.63 13.9 5.66 10.25C8.29 15.987 9.36 14.86 9.36 14.86c.53.353 1.167.533 1.834.468l.052-.044a2.02 2.02 0 0 0 .021.518c-.78.872-.55 1.025-2.11 1.346-1.578.325-.65.904-.046 1.056.734.184 2.432.444 3.58-1.162l-.046.183c.306.245.52 1.593.484 2.815s-.06 2.06.18 2.716.48 2.13 2.53 1.7c1.713-.367 2.6-1.32 2.725-2.906.088-1.128.286-.962.3-1.97l.16-.478c.183-1.53.03-2.023 1.085-1.793l.257.023c.777.035 1.794-.125 2.39-.402 1.285-.596 2.047-1.592.78-1.33z"
          fill="#3D86FF" stroke="none" />
        <g class="B">
          <path
            d="M12.814 16.467c-.08 2.846.02 5.712.298 6.4s.875 2.05 2.926 1.612c1.713-.367 2.337-1.078 2.607-2.647l.633-5.017M10.356 2.2S1.072-1.596 1.504 7.033c.092 1.836 2.63 13.9 5.66 10.25C8.27 15.95 9.27 14.907 9.27 14.907m6.1-13.4c-.32.1 5.164-2.005 8.282 1.978 1.1 1.407-.175 7.157-3.228 11.687"
            class="C" />
          <path
            d="M20.425 15.17s.2.98 3.1.382c1.267-.262.504.734-.78 1.33-1.054.49-3.418.615-3.457-.06-.1-1.745 1.244-1.215 1.147-1.652-.088-.394-.69-.78-1.086-1.744-.347-.84-4.76-7.29 1.224-6.333.22-.045-1.56-5.7-7.16-5.782S7.99 8.196 7.99 8.196"
            stroke-linejoin="bevel" />
        </g>
        <g class="C">
          <path
            d="M11.247 15.768c-.78.872-.55 1.025-2.11 1.346-1.578.325-.65.904-.046 1.056.734.184 2.432.444 3.58-1.163.35-.49-.002-1.27-.482-1.468-.232-.096-.542-.216-.94.23z" />
          <path
            d="M11.196 15.753c-.08-.513.168-1.122.433-1.836.398-1.07 1.316-2.14.582-5.537-.547-2.53-4.22-.527-4.22-.184s.166 1.74-.06 3.365c-.297 2.122 1.35 3.916 3.246 3.733"
            class="B" />
        </g>
        <g fill="#0b0f1a" class="D">
          <path d="M10.322 8.145c-.017.117.215.43.516.472s.558-.202.575-.32-.215-.246-.516-.288-.56.02-.575.136z"
            stroke-width=".239" />
          <path d="M19.486 7.906c.016.117-.215.43-.516.472s-.56-.202-.575-.32.215-.246.516-.288.56.02.575.136z"
            stroke-width=".119" />
        </g>
        <path d="M20.562 7.095c.05.92-.198 1.545-.23 2.524-.046 1.422.678 3.05-.413 4.68" class="B C E" />
      </g>
      <line x1="25" y1="125" x2="105" y2="125" stroke="#3D86FF" stroke-width="3" stroke-linecap="round" />
    </g>

    <!-- Prisma -->
    <g transform="translate(182,92)">
      <rect width="130" height="140" rx="16" fill="#0b0f1a" stroke="#1e293b" stroke-width="1" />
      <text x="65" y="32" text-anchor="middle" font-size="14" font-weight="500"
        font-family="Inter, Segoe UI, system-ui, sans-serif" fill="#3D86FF">
        Prisma
      </text>
      <g transform="translate(46, 54) scale(0.15)" xmlns:xlink="http://www.w3.org/1999/xlink"
        preserveAspectRatio="xMidYMid">
        <g>
          <path
            d="M254.312882,235.518775 L148.000961,9.74987264 C145.309805,4.08935083 139.731924,0.359884549 133.472618,0.0359753113 C127.198908,-0.384374336 121.212054,2.71925839 117.939655,8.08838662 L2.63252565,194.847143 C-0.947129465,200.604248 -0.871814894,207.912774 2.8257217,213.594888 L59.2003287,300.896318 C63.5805009,307.626626 71.8662281,310.673635 79.5631922,308.384597 L243.161606,259.992851 C248.145475,258.535702 252.252801,254.989363 254.421072,250.271225 C256.559881,245.57581 256.523135,240.176915 254.32061,235.511047 L254.312882,235.518775 Z M230.511129,245.201761 L91.6881763,286.252058 C87.4533189,287.511696 83.388474,283.840971 84.269448,279.567474 L133.866738,42.0831633 C134.794079,37.6396542 140.929985,36.9364206 142.869673,41.0476325 L234.684164,236.021085 C235.505704,237.779423 235.515611,239.809427 234.711272,241.575701 C233.906934,243.341974 232.369115,244.667163 230.503401,245.201761 L230.511129,245.201761 Z"
            fill="#3D86FF" fill-rule="nonzero">

          </path>
        </g>
      </g>
      <line x1="25" y1="125" x2="105" y2="125" stroke="#3D86FF" stroke-width="3" stroke-linecap="round" />
    </g>

    <!-- Knex -->
    <g transform="translate(332,92)">
      <rect width="130" height="140" rx="16" fill="#0b0f1a" stroke="#1e293b" stroke-width="1" />
      <text x="65" y="32" text-anchor="middle" font-size="14" font-weight="500"
        font-family="Inter, Segoe UI, system-ui, sans-serif" fill="#3D86FF">
        Knex
      </text>
      <g transform="translate(38, 52) scale(0.4)">
        <path
          d="m126.79 70.959-15.632-7.5516 14.809-6.926c1.1485-0.53876 1.8226-1.9596 1.0284-3.2841l-1.5389-1.7815c-0.99319-1.086-2.0717-1.8782-3.3819-1.3628l-11.002 4.1473c-0.24011 0.09029-0.50354 0.1017-0.7506 0.03175l-4.259-1.2065c-0.31601-0.0893-0.65534-0.0055-0.89346 0.22027l-4.5556 4.3245c-1.021-5.8534-3.4002-11.24-6.8168-15.811l6.6601-0.05209c0.28674-0.0025 0.55016-0.15925 0.68857-0.41077l2.3574-4.2758c0.12253-0.22275 0.31651-0.39787 0.55016-0.49709l10.898-4.6469c0.66923-0.28525 1.081-1.6758 0.9525-2.5777l-0.35471-3.2544c-0.28972-0.93464-1.6019-1.7572-2.2294-1.5255l-16.393 5.714 5.5741-15.369c0.4311-1.1931-0.0967-2.6739-1.595-3.0495l-2.348-0.17115c-1.4704-0.06548-2.793 0.13643-3.3551 1.4278l-4.8473 10.712c-0.10567 0.23366-0.28377 0.42763-0.508 0.55314l-3.8646 2.1585c-0.28674 0.16024-0.46732 0.45938-0.47625 0.7873l-0.16371 6.2815c-4.6623-3.2762-10.107-5.5096-16.004-6.3584l4.6757-4.7496c0.20142-0.20489 0.27682-0.50205 0.19695-0.77738l-1.3568-4.6906c-0.07044-0.24408-0.05755-0.50502 0.03721-0.74067l4.4207-10.992c0.27186-0.67469-0.42019-1.9497-1.1495-2.4963l-2.5514-2.0504c-0.86618-0.45541-2.3758-0.10964-2.6556 0.49758l-7.5516 15.633-6.926-14.809c-0.53876-1.149-1.9591-1.8227-3.2841-1.0289l-1.7815 1.5394c-1.0859 0.99318-1.8782 2.0712-1.3623 3.3819l4.1469 11.002c0.09078 0.2406 0.1017 0.50354 0.03175 0.75059l-1.206 4.2595c-0.08979 0.31552-6e-3 0.65484 0.22027 0.89297l4.324 4.5556c-5.8534 1.0215-11.24 3.4002-15.811 6.8168l-0.05259-6.6596c-2e-3 -0.28724-0.15925-0.55017-0.41027-0.68908l-4.2763-2.3574c-0.22225-0.12254-0.39737-0.31601-0.49709-0.54967l-4.6464-10.899c-0.28525-0.66923-1.6758-1.081-2.5782-0.952l-3.2544 0.35421c-0.93415 0.29022-1.7572 1.6024-1.5255 2.2294l5.7145 16.394-15.369-5.5741c-1.1936-0.4316-2.6744 0.09674-3.05 1.5949l-0.17115 2.348c-0.06548 1.4699 0.13643 2.793 1.4278 3.3546l10.712 4.8473c0.23416 0.10616 0.42813 0.28426 0.55314 0.5085l2.159 3.8646c0.15974 0.28625 0.45938 0.46732 0.7873 0.47575l6.2811 0.16371c-3.2757 4.6623-5.5096 10.107-6.3579 16.004l-4.7501-4.6757c-0.20439-0.20141-0.50155-0.27632-0.77738-0.19695l-4.6906 1.3568c-0.24408 0.07094-0.50453 0.05755-0.74017-0.03721l-10.992-4.4207c-0.67518-0.27136-1.9497 0.42069-2.4963 1.1495l-2.0509 2.5519c-0.45542 0.86568-0.10914 2.3753 0.49808 2.6551l15.632 7.5516-14.809 6.926c-1.149 0.53876-1.8227 1.9596-1.0289 3.2842l1.5394 1.7815c0.99318 1.086 2.0717 1.8782 3.3819 1.3628l11.002-4.1474c0.24011-0.0903 0.50304-0.1017 0.75059-0.0317l4.259 1.2065c0.31552 0.0893 0.65534 5e-3 0.89347-0.22027l4.5556-4.3244c1.021 5.8534 3.4002 11.24 6.8168 15.811l-6.6601 0.0521c-0.28674 2e-3 -0.55017 0.15925-0.68858 0.41077l-2.3574 4.2758c-0.12303 0.22275-0.31651 0.39737-0.55017 0.49758l-10.898 4.6464c-0.66923 0.28526-1.0815 1.6758-0.9525 2.5777l0.35421 3.2544c0.29022 0.93464 1.6024 1.7572 2.2299 1.5255l16.393-5.714-5.5741 15.369c-0.43111 1.1931 0.09674 2.674 1.5949 3.0495l2.348 0.17116c1.4699 0.0655 2.793-0.13643 3.3546-1.4278l4.8473-10.712c0.10616-0.23366 0.28426-0.42764 0.5085-0.55315l3.8646-2.1585c0.28625-0.16024 0.46732-0.45939 0.47575-0.78731l0.16421-6.2815c4.6623 3.2762 10.107 5.5096 16.004 6.3584l-4.6762 4.7496c-0.20092 0.20488-0.27632 0.50204-0.19645 0.77738l1.3568 4.6906c0.07045 0.24408 0.05706 0.50502-0.0377 0.74067l-4.4207 10.992c-0.27136 0.67469 0.42068 1.9497 1.1499 2.4964l2.5514 2.0504c0.86569 0.45542 2.3753 0.10964 2.6556-0.49758l7.551-15.633 6.9265 14.809c0.53876 1.149 1.9591 1.8227 3.2841 1.0289l1.781-1.5394c1.086-0.99318 1.8787-2.0717 1.3628-3.3819l-4.1469-11.002c-0.09079-0.24061-0.1017-0.50354-0.03175-0.75059l1.206-4.2595c0.0893-0.31551 0.0055-0.65484-0.22026-0.89297l-4.324-4.5561c5.8529-1.021 11.24-3.3997 15.811-6.8168l0.05259 6.6606c2e-3 0.28674 0.15925 0.55017 0.41027 0.68858l4.2763 2.3574c0.22225 0.12254 0.39737 0.31601 0.49709 0.54967l4.6464 10.899c0.28525 0.66923 1.6758 1.081 2.5782 0.95201l3.2539-0.35421c0.93464-0.29022 1.7572-1.6024 1.526-2.2294l-5.7145-16.394 15.369 5.5741c1.1936 0.4316 2.6744-0.0967 3.05-1.595l0.17115-2.348c0.0655-1.4699-0.13692-2.793-1.4278-3.3546l-10.712-4.8473c-0.23416-0.10617-0.42813-0.28426-0.55364-0.5085l-2.1585-3.8646c-0.16024-0.28625-0.45938-0.46733-0.7873-0.47576l-6.2816-0.16371c3.2762-4.6623 5.5096-10.107 6.3584-16.004l4.7501 4.6757c0.20439 0.20141 0.50155 0.27632 0.77688 0.19695l4.6911-1.3568c0.24359-0.0709 0.50453-0.0576 0.74018 0.0372l10.992 4.4207c0.67518 0.27137 1.9496-0.42068 2.4963-1.1494l2.0504-2.5519c0.45591-0.86568 0.10964-2.3753-0.49758-2.6551zm-36.136-11.106h-7.9053c-0.57497-2.6129-1.6813-5.0249-3.2013-7.1195l5.5409-5.5409c2.863 3.5878 4.8339 7.9182 5.5657 12.66zm-16.331-12.044c-2.1734-1.3896-4.6429-2.3555-7.2961-2.7761v-7.8348c4.7848 0.53479 9.1897 2.3202 12.883 5.0239zm-0.96242 16.19c0 5.1713-4.192 9.3638-9.3638 9.3638-5.1713 0-9.3638-4.1925-9.3638-9.3638s4.1925-9.3638 9.3638-9.3638c5.1718 0 9.3638 4.1925 9.3638 9.3638zm-13.51-26.658v7.9053c-2.6129 0.57547-5.0249 1.6818-7.119 3.2013l-5.5414-5.5409c3.5882-2.863 7.9182-4.8339 12.66-5.5657zm-12.044 16.331c-1.3891 2.1739-2.3555 4.6434-2.7756 7.2961h-7.8353c0.53529-4.7848 2.3207-9.1897 5.0239-12.883zm-10.467 14.473h7.9053c0.57497 2.6129 1.6813 5.0249 3.2013 7.1194l-5.5414 5.5409c-2.8625-3.5878-4.8334-7.9182-5.5652-12.66zm16.331 12.044c2.1739 1.3896 4.6434 2.3554 7.2961 2.7761v7.8348c-4.7843-0.53479-9.1897-2.3202-12.883-5.024zm14.473 10.468v-7.9053c2.6124-0.57547 5.0249-1.6818 7.119-3.2013l5.5409 5.5409c-3.5878 2.863-7.9182 4.8339-12.66 5.5657zm12.044-16.331c1.3891-2.1739 2.355-4.6434 2.7756-7.2961h7.8353c-0.53529 4.7848-2.3207 9.1896-5.0239 12.883z"
          fill="#3D86FF" />
      </g>
      <line x1="25" y1="125" x2="105" y2="125" stroke="#3D86FF" stroke-width="3" stroke-linecap="round" />
    </g>

    <!-- SQLAlquemy -->
    <g transform="translate(482,92)">
      <rect width="130" height="140" rx="16" fill="#0b0f1a" stroke="#1e293b" stroke-width="1" />
      <text x="65" y="32" text-anchor="middle" font-size="14" font-weight="500"
        font-family="Inter, Segoe UI, system-ui, sans-serif" fill="#3D86FF">
        SQLAlquemy
      </text>
      <g transform="translate(20, 36) scale(0.7)">
        <path fill="#3D86FF"
          d="M15.676 69.912c-.671-.107-2.39-.537-3.813-.926L9.27 68.26l1.33-2.444 1.329-2.444-1.074-1.33c-1.518-1.88-3.478-6.002-3.491-7.33-.014-3.103 4.014-7.601 8.956-10.018 3.397-1.665 6.096-1.705 9.48-.12l2.551 1.194.739-1.06c.402-.578.738-1.343.738-1.679s.336-.631.739-.631.738.107.738.228c0 .296-2.967 7.788-3.155 7.976-.081.08-.887-.295-1.8-.832-2.578-1.518-5.814-2.525-8.325-2.592-5.841-.148-7.869 5.56-3.746 10.554l1.45 1.76 3.961-3.21c4.445-3.585 4.955-3.666 8.42-1.275 3.893 2.685 3.96 6.767.2 11.037-3.33 3.8-6.753 4.848-12.635 3.867zm9.964-4.095c1.933-1.517 1.799-4.324-.296-6.553-2.632-2.793-3.45-2.672-8.083 1.195-4.606 3.84-4.633 3.693.873 5.452 3.638 1.181 5.921 1.141 7.506-.094zM63.05 80.614c-1.317-.483-4.862-1.947-7.896-3.263-8.191-3.572-9.346-3.639-11.79-.671-.564.685-1.181 1.114-1.356.94-.524-.524 1.034-3.035 2.914-4.686 1.53-1.343 2.04-1.531 3.733-1.343 1.074.12 4.646 1.37 7.935 2.766 7.426 3.155 9.601 3.827 12.435 3.827 3.45 0 5.223-2.417 4.135-5.626-.268-.806-.188-1.075.35-1.075 1.006 0 1.517 3.76.792 5.922-.31.926-1.209 2.242-2.001 2.9-1.182.994-1.934 1.209-4.15 1.195-1.49-.013-3.786-.402-5.102-.886zm-19.135-11.48c-3.048-1.424-5.801-4.136-7.386-7.305-2.537-5.076-1.759-8.325 3.049-12.716 4.041-3.693 7.345-5.13 11.79-5.13 3.208 0 3.893.175 5.974 1.45 4.928 3.049 6.15 8.863 3.183 15.2-3.478 7.44-10.823 11.186-16.61 8.5zm10.205-3.532c2.282-1.128 3.854-6.338 3.209-10.662-.806-5.33-8.016-8.97-13.307-6.713-5.438 2.323-5.519 8.513-.174 14.085 3.732 3.908 6.942 4.928 10.272 3.29zM64.473 70.114c0-.229.845-.631 1.893-.887l1.893-.47.403-6.82c.443-7.547.12-14.973-.698-15.966-.296-.35-1.195-.78-2.014-.967-3.33-.739-1.115-1.249 5.344-1.249 6.459 0 8.513.47 5.438 1.249-2.645.658-2.659.698-2.659 11.467 0 5.975.215 10.474.524 11.051.43.806 1.074.98 3.545.98 5.102 0 6.861-1.208 8.245-5.68.416-1.342 1.49-1.1 1.114.256-.175.63-.456 2.55-.631 4.296l-.322 3.156H75.51c-6.07 0-11.037-.188-11.037-.416z" />
        <path fill="#3D86FF"
          d="M89.542 69.791c0-.402.39-.805 1.034-1.114.86-.403 1.423-1.249 3.464-5.237 3.236-6.31 8.339-17.147 8.822-18.772.376-1.235.457-1.302 1.853-1.463.806-.094 1.477-.148 1.49-.121.014.027 1.129 2.47 2.485 5.438 1.343 2.967 4.042 8.607 6.002 12.528 3.277 6.593 3.64 7.184 4.74 7.72.672.323 1.195.82 1.195 1.115 0 .47-.577.524-5.545.524-4.982 0-5.546-.054-5.546-.537 0-.322.43-.671 1.114-.9.632-.201 1.115-.577 1.115-.859 0-.269-.658-2.041-1.464-3.934l-1.463-3.451H97.746l-1.06 2.336c-1.988 4.378-2.028 5.412-.175 5.908.927.255 1.182.457 1.074.873-.12.484-.604.55-4.095.55-3.747.028-3.948 0-3.948-.604zm18.181-10.863c.188-.335-3.988-9.453-4.377-9.547-.282-.08-4.606 8.836-4.606 9.507 0 .336 8.782.376 8.983.04z" />
      </g>
      <line x1="25" y1="125" x2="105" y2="125" stroke="#3D86FF" stroke-width="3" stroke-linecap="round" />
    </g>
  </g>

  <!-- Front-end & Mobile -->
  <g transform="translate(0,296)">
    <!-- Container -->
    <rect width="944" height="264" rx="24" fill="#020617" stroke="#1e293b" stroke-width="1" />

    <!-- Title -->
    <text x="32" y="56" font-size="28" font-weight="600" font-family="Inter, Segoe UI, system-ui, sans-serif"
      fill="#e5e7eb">
      Front-end &amp; Mobile
    </text>

    <!-- Divider -->
    <line x1="32" y1="72" x2="912" y2="72" stroke="#1e293b" stroke-width="1" />

    <!-- React -->
    <g transform="translate(32,92)">
      <rect width="130" height="140" rx="16" fill="#0b0f1a" stroke="#1e293b" stroke-width="1" />
      <text x="65" y="32" text-anchor="middle" font-size="14" font-weight="500"
        font-family="Inter, Segoe UI, system-ui, sans-serif" fill="#3D86FF">
        React
      </text>
      <g transform="translate(38, 52) scale(0.4)" fill="#3D86FF">
        <circle cx="64" cy="64" r="11.4" />
        <path
          d="M107.3 45.2c-2.2-.8-4.5-1.6-6.9-2.3.6-2.4 1.1-4.8 1.5-7.1 2.1-13.2-.2-22.5-6.6-26.1-1.9-1.1-4-1.6-6.4-1.6-7 0-15.9 5.2-24.9 13.9-9-8.7-17.9-13.9-24.9-13.9-2.4 0-4.5.5-6.4 1.6-6.4 3.7-8.7 13-6.6 26.1.4 2.3.9 4.7 1.5 7.1-2.4.7-4.7 1.4-6.9 2.3C8.2 50 1.4 56.6 1.4 64s6.9 14 19.3 18.8c2.2.8 4.5 1.6 6.9 2.3-.6 2.4-1.1 4.8-1.5 7.1-2.1 13.2.2 22.5 6.6 26.1 1.9 1.1 4 1.6 6.4 1.6 7.1 0 16-5.2 24.9-13.9 9 8.7 17.9 13.9 24.9 13.9 2.4 0 4.5-.5 6.4-1.6 6.4-3.7 8.7-13 6.6-26.1-.4-2.3-.9-4.7-1.5-7.1 2.4-.7 4.7-1.4 6.9-2.3 12.5-4.8 19.3-11.4 19.3-18.8s-6.8-14-19.3-18.8zM92.5 14.7c4.1 2.4 5.5 9.8 3.8 20.3-.3 2.1-.8 4.3-1.4 6.6-5.2-1.2-10.7-2-16.5-2.5-3.4-4.8-6.9-9.1-10.4-13 7.4-7.3 14.9-12.3 21-12.3 1.3 0 2.5.3 3.5.9zM81.3 74c-1.8 3.2-3.9 6.4-6.1 9.6-3.7.3-7.4.4-11.2.4-3.9 0-7.6-.1-11.2-.4-2.2-3.2-4.2-6.4-6-9.6-1.9-3.3-3.7-6.7-5.3-10 1.6-3.3 3.4-6.7 5.3-10 1.8-3.2 3.9-6.4 6.1-9.6 3.7-.3 7.4-.4 11.2-.4 3.9 0 7.6.1 11.2.4 2.2 3.2 4.2 6.4 6 9.6 1.9 3.3 3.7 6.7 5.3 10-1.7 3.3-3.4 6.6-5.3 10zm8.3-3.3c1.5 3.5 2.7 6.9 3.8 10.3-3.4.8-7 1.4-10.8 1.9 1.2-1.9 2.5-3.9 3.6-6 1.2-2.1 2.3-4.2 3.4-6.2zM64 97.8c-2.4-2.6-4.7-5.4-6.9-8.3 2.3.1 4.6.2 6.9.2 2.3 0 4.6-.1 6.9-.2-2.2 2.9-4.5 5.7-6.9 8.3zm-18.6-15c-3.8-.5-7.4-1.1-10.8-1.9 1.1-3.3 2.3-6.8 3.8-10.3 1.1 2 2.2 4.1 3.4 6.1 1.2 2.2 2.4 4.1 3.6 6.1zm-7-25.5c-1.5-3.5-2.7-6.9-3.8-10.3 3.4-.8 7-1.4 10.8-1.9-1.2 1.9-2.5 3.9-3.6 6-1.2 2.1-2.3 4.2-3.4 6.2zM64 30.2c2.4 2.6 4.7 5.4 6.9 8.3-2.3-.1-4.6-.2-6.9-.2-2.3 0-4.6.1-6.9.2 2.2-2.9 4.5-5.7 6.9-8.3zm22.2 21l-3.6-6c3.8.5 7.4 1.1 10.8 1.9-1.1 3.3-2.3 6.8-3.8 10.3-1.1-2.1-2.2-4.2-3.4-6.2zM31.7 35c-1.7-10.5-.3-17.9 3.8-20.3 1-.6 2.2-.9 3.5-.9 6 0 13.5 4.9 21 12.3-3.5 3.8-7 8.2-10.4 13-5.8.5-11.3 1.4-16.5 2.5-.6-2.3-1-4.5-1.4-6.6zM7 64c0-4.7 5.7-9.7 15.7-13.4 2-.8 4.2-1.5 6.4-2.1 1.6 5 3.6 10.3 6 15.6-2.4 5.3-4.5 10.5-6 15.5C15.3 75.6 7 69.6 7 64zm28.5 49.3c-4.1-2.4-5.5-9.8-3.8-20.3.3-2.1.8-4.3 1.4-6.6 5.2 1.2 10.7 2 16.5 2.5 3.4 4.8 6.9 9.1 10.4 13-7.4 7.3-14.9 12.3-21 12.3-1.3 0-2.5-.3-3.5-.9zM96.3 93c1.7 10.5.3 17.9-3.8 20.3-1 .6-2.2.9-3.5.9-6 0-13.5-4.9-21-12.3 3.5-3.8 7-8.2 10.4-13 5.8-.5 11.3-1.4 16.5-2.5.6 2.3 1 4.5 1.4 6.6zm9-15.6c-2 .8-4.2 1.5-6.4 2.1-1.6-5-3.6-10.3-6-15.6 2.4-5.3 4.5-10.5 6-15.5 13.8 4 22.1 10 22.1 15.6 0 4.7-5.8 9.7-15.7 13.4z" />
      </g>
      <line x1="25" y1="125" x2="105" y2="125" stroke="#3D86FF" stroke-width="3" stroke-linecap="round" />
    </g>

    <!-- React Native -->
    <g transform="translate(182,92)">
      <rect width="130" height="140" rx="16" fill="#0b0f1a" stroke="#1e293b" stroke-width="1" />
      <text x="65" y="32" text-anchor="middle" font-size="14" font-weight="500"
        font-family="Inter, Segoe UI, system-ui, sans-serif" fill="#3D86FF">
        React Native
      </text>
      <g transform="translate(38, 52) scale(0.4)" fill="#3D86FF">
        <circle cx="64" cy="64" r="11.4" />
        <path
          d="M107.3 45.2c-2.2-.8-4.5-1.6-6.9-2.3.6-2.4 1.1-4.8 1.5-7.1 2.1-13.2-.2-22.5-6.6-26.1-1.9-1.1-4-1.6-6.4-1.6-7 0-15.9 5.2-24.9 13.9-9-8.7-17.9-13.9-24.9-13.9-2.4 0-4.5.5-6.4 1.6-6.4 3.7-8.7 13-6.6 26.1.4 2.3.9 4.7 1.5 7.1-2.4.7-4.7 1.4-6.9 2.3C8.2 50 1.4 56.6 1.4 64s6.9 14 19.3 18.8c2.2.8 4.5 1.6 6.9 2.3-.6 2.4-1.1 4.8-1.5 7.1-2.1 13.2.2 22.5 6.6 26.1 1.9 1.1 4 1.6 6.4 1.6 7.1 0 16-5.2 24.9-13.9 9 8.7 17.9 13.9 24.9 13.9 2.4 0 4.5-.5 6.4-1.6 6.4-3.7 8.7-13 6.6-26.1-.4-2.3-.9-4.7-1.5-7.1 2.4-.7 4.7-1.4 6.9-2.3 12.5-4.8 19.3-11.4 19.3-18.8s-6.8-14-19.3-18.8zM92.5 14.7c4.1 2.4 5.5 9.8 3.8 20.3-.3 2.1-.8 4.3-1.4 6.6-5.2-1.2-10.7-2-16.5-2.5-3.4-4.8-6.9-9.1-10.4-13 7.4-7.3 14.9-12.3 21-12.3 1.3 0 2.5.3 3.5.9zM81.3 74c-1.8 3.2-3.9 6.4-6.1 9.6-3.7.3-7.4.4-11.2.4-3.9 0-7.6-.1-11.2-.4-2.2-3.2-4.2-6.4-6-9.6-1.9-3.3-3.7-6.7-5.3-10 1.6-3.3 3.4-6.7 5.3-10 1.8-3.2 3.9-6.4 6.1-9.6 3.7-.3 7.4-.4 11.2-.4 3.9 0 7.6.1 11.2.4 2.2 3.2 4.2 6.4 6 9.6 1.9 3.3 3.7 6.7 5.3 10-1.7 3.3-3.4 6.6-5.3 10zm8.3-3.3c1.5 3.5 2.7 6.9 3.8 10.3-3.4.8-7 1.4-10.8 1.9 1.2-1.9 2.5-3.9 3.6-6 1.2-2.1 2.3-4.2 3.4-6.2zM64 97.8c-2.4-2.6-4.7-5.4-6.9-8.3 2.3.1 4.6.2 6.9.2 2.3 0 4.6-.1 6.9-.2-2.2 2.9-4.5 5.7-6.9 8.3zm-18.6-15c-3.8-.5-7.4-1.1-10.8-1.9 1.1-3.3 2.3-6.8 3.8-10.3 1.1 2 2.2 4.1 3.4 6.1 1.2 2.2 2.4 4.1 3.6 6.1zm-7-25.5c-1.5-3.5-2.7-6.9-3.8-10.3 3.4-.8 7-1.4 10.8-1.9-1.2 1.9-2.5 3.9-3.6 6-1.2 2.1-2.3 4.2-3.4 6.2zM64 30.2c2.4 2.6 4.7 5.4 6.9 8.3-2.3-.1-4.6-.2-6.9-.2-2.3 0-4.6.1-6.9.2 2.2-2.9 4.5-5.7 6.9-8.3zm22.2 21l-3.6-6c3.8.5 7.4 1.1 10.8 1.9-1.1 3.3-2.3 6.8-3.8 10.3-1.1-2.1-2.2-4.2-3.4-6.2zM31.7 35c-1.7-10.5-.3-17.9 3.8-20.3 1-.6 2.2-.9 3.5-.9 6 0 13.5 4.9 21 12.3-3.5 3.8-7 8.2-10.4 13-5.8.5-11.3 1.4-16.5 2.5-.6-2.3-1-4.5-1.4-6.6zM7 64c0-4.7 5.7-9.7 15.7-13.4 2-.8 4.2-1.5 6.4-2.1 1.6 5 3.6 10.3 6 15.6-2.4 5.3-4.5 10.5-6 15.5C15.3 75.6 7 69.6 7 64zm28.5 49.3c-4.1-2.4-5.5-9.8-3.8-20.3.3-2.1.8-4.3 1.4-6.6 5.2 1.2 10.7 2 16.5 2.5 3.4 4.8 6.9 9.1 10.4 13-7.4 7.3-14.9 12.3-21 12.3-1.3 0-2.5-.3-3.5-.9zM96.3 93c1.7 10.5.3 17.9-3.8 20.3-1 .6-2.2.9-3.5.9-6 0-13.5-4.9-21-12.3 3.5-3.8 7-8.2 10.4-13 5.8-.5 11.3-1.4 16.5-2.5.6 2.3 1 4.5 1.4 6.6zm9-15.6c-2 .8-4.2 1.5-6.4 2.1-1.6-5-3.6-10.3-6-15.6 2.4-5.3 4.5-10.5 6-15.5 13.8 4 22.1 10 22.1 15.6 0 4.7-5.8 9.7-15.7 13.4z" />
      </g>
      <line x1="25" y1="125" x2="105" y2="125" stroke="#3D86FF" stroke-width="3" stroke-linecap="round" />
    </g>

    <!-- Next.js -->
    <g transform="translate(332,92)">
      <rect width="130" height="140" rx="16" fill="#0b0f1a" stroke="#1e293b" stroke-width="1" />
      <text x="65" y="32" text-anchor="middle" font-size="14" font-weight="500"
        font-family="Inter, Segoe UI, system-ui, sans-serif" fill="#3D86FF">
        Next.js
      </text>
      <g transform="translate(38, 52) scale(0.4)">
        <path fill="#3D86FF"
          d="M64 0C28.7 0 0 28.7 0 64s28.7 64 64 64c11.2 0 21.7-2.9 30.8-7.9L48.4 55.3v36.6h-6.8V41.8h6.8l50.5 75.8C116.4 106.2 128 86.5 128 64c0-35.3-28.7-64-64-64zm22.1 84.6l-7.5-11.3V41.8h7.5v42.8z" />
      </g>
      <line x1="25" y1="125" x2="105" y2="125" stroke="#3D86FF" stroke-width="3" stroke-linecap="round" />
    </g>

    <!-- Redux -->
    <g transform="translate(482,92)">
      <rect width="130" height="140" rx="16" fill="#0b0f1a" stroke="#1e293b" stroke-width="1" />
      <text x="65" y="32" text-anchor="middle" font-size="14" font-weight="500"
        font-family="Inter, Segoe UI, system-ui, sans-serif" fill="#3D86FF">
        Redux
      </text>
      <g transform="translate(38, 52) scale(0.4)">
        <path fill="#3D86FF"
          d="M88.69 88.11c-9 18.4-24.76 30.78-45.61 34.85a39.73 39.73 0 0 1-9.77 1.14c-12 0-23-5-28.34-13.19C-2.2 100-4.64 76.87 19 59.76c.48 2.61 1.46 6.19 2.11 8.31A38.24 38.24 0 0 0 10 81.1c-4.4 8.64-3.91 17.27 1.3 25.25 3.6 5.38 9.3 8.65 16.63 9.65a44 44 0 0 0 26.55-5c12.71-6.68 21.18-14.66 26.72-25.57a9.32 9.32 0 0 1-2.61-6A9.12 9.12 0 0 1 87.37 70h.34a9.15 9.15 0 0 1 1 18.25zm28.67-20.2c12.21 13.84 12.54 30.13 7.82 39.58-4.4 8.63-16 17.27-31.6 17.27a50.48 50.48 0 0 1-21-5.05c2.29-1.63 5.54-4.24 7.33-5.87a41.54 41.54 0 0 0 16 3.42c10.1 0 17.75-4.72 22.31-13.35 2.93-5.7 3.1-12.38.33-19.22a43.61 43.61 0 0 0-17.27-20.85 62 62 0 0 0-34.74-10.59h-2.93a9.21 9.21 0 0 1-8 5.54h-.31a9.13 9.13 0 0 1-.3-18.25h.33a9 9 0 0 1 8 4.89h2.61c20.8 0 39.06 7.98 51.42 22.48zm-82.75 23a7.31 7.31 0 0 1 1.14-4.73c-9.12-15.8-14-35.83-6.51-56.68C34.61 13.83 48.13 3.24 62.79 3.24c15.64 0 31.93 13.69 33.88 40.07-2.44-.81-6-2-8.14-2.44-.53-8.63-7.82-30.13-25.09-29.81-6.19.17-15.31 3.1-20 9.12a43.69 43.69 0 0 0-9.64 25.25 59.61 59.61 0 0 0 8.47 36.16 2.75 2.75 0 0 1 1.14-.16h.32a9.121 9.121 0 0 1 .33 18.24h-.33a9.16 9.16 0 0 1-9.12-8.79z" />
      </g>
      <line x1="25" y1="125" x2="105" y2="125" stroke="#3D86FF" stroke-width="3" stroke-linecap="round" />
    </g>

    <!-- Tailwind CSS -->
    <g transform="translate(632,92)">
      <rect width="130" height="140" rx="16" fill="#0b0f1a" stroke="#1e293b" stroke-width="1" />
      <text x="65" y="32" text-anchor="middle" font-size="14" font-weight="500"
        font-family="Inter, Segoe UI, system-ui, sans-serif" fill="#3D86FF">
        Tailwind CSS
      </text>
      <g transform="translate(38, 52) scale(0.4)">
        <path
          d="M64.004 25.602c-17.067 0-27.73 8.53-32 25.597 6.398-8.531 13.867-11.73 22.398-9.597 4.871 1.214 8.352 4.746 12.207 8.66C72.883 56.629 80.145 64 96.004 64c17.066 0 27.73-8.531 32-25.602-6.399 8.536-13.867 11.735-22.399 9.602-4.87-1.215-8.347-4.746-12.207-8.66-6.27-6.367-13.53-13.738-29.394-13.738zM32.004 64c-17.066 0-27.73 8.531-32 25.602C6.402 81.066 13.87 77.867 22.402 80c4.871 1.215 8.352 4.746 12.207 8.66 6.274 6.367 13.536 13.738 29.395 13.738 17.066 0 27.73-8.53 32-25.597-6.399 8.531-13.867 11.73-22.399 9.597-4.87-1.214-8.347-4.746-12.207-8.66C55.128 71.371 47.868 64 32.004 64zm0 0"
          fill="#3D86FF" />
      </g>

      <line x1="25" y1="125" x2="105" y2="125" stroke="#3D86FF" stroke-width="3" stroke-linecap="round" />
    </g>

    <!-- Material UI -->
    <g transform="translate(782,92)">
      <rect width="130" height="140" rx="16" fill="#0b0f1a" stroke="#1e293b" stroke-width="1" />
      <text x="65" y="32" text-anchor="middle" font-size="14" font-weight="500"
        font-family="Inter, Segoe UI, system-ui, sans-serif" fill="#3D86FF">
        Material UI
      </text>
      <g transform="translate(38, 52) scale(0.4)">
        <path fill=" #3D86FF" d="M.2 68.6V13.4L48 41v18.4L16.1 41v36.8L.2 68.6z" />
        <path fill="#3D86FF" d="M48 41l47.9-27.6v55.3L64 87l-16-9.2 32-18.4V41L48 59.4V41z" />
        <path fill="#3D86FF" d="M48 77.8v18.4l32 18.4V96.2L48 77.8z" />
        <path fill="#3D86FF"
          d="M80 114.6L127.8 87V50.2l-16 9.2v18.4L80 96.2v18.4zM111.9 41V22.6l16-9.2v18.4l-16 9.2z" />
      </g>
      <line x1="25" y1="125" x2="105" y2="125" stroke="#3D86FF" stroke-width="3" stroke-linecap="round" />
    </g>
  </g>

  <!-- Design -->
  <g transform="translate(976,296)">
    <!-- Container -->
    <rect width="194" height="264" rx="24" fill="#020617" stroke="#1e293b" stroke-width="1" />

    <!-- Title -->
    <text x="32" y="56" font-size="28" font-weight="600" font-family="Inter, Segoe UI, system-ui, sans-serif"
      fill="#e5e7eb">
      Design
    </text>

    <!-- Divider -->
    <line x1="32" y1="72" x2="162" y2="72" stroke="#1e293b" stroke-width="1" />

    <!-- Figma -->
    <g transform="translate(32,92)">
      <rect width="130" height="140" rx="16" fill="#0b0f1a" stroke="#1e293b" stroke-width="1" />
      <text x="65" y="32" text-anchor="middle" font-size="14" font-weight="500"
        font-family="Inter, Segoe UI, system-ui, sans-serif" fill="#3D86FF">
        Figma
      </text>
      <g transform="translate(38, 52) scale(0.4)">
        <path fill="#3D86FF"
          d="M45.5 129c11.9 0 21.5-9.6 21.5-21.5V86H45.5C33.6 86 24 95.6 24 107.5S33.6 129 45.5 129zm0 0" />
        <path fill="#3D86FF" d="M24 64.5C24 52.6 33.6 43 45.5 43H67v43H45.5C33.6 86 24 76.4 24 64.5zm0 0" />
        <path fill="#3D86FF" d="M24 21.5C24 9.6 33.6 0 45.5 0H67v43H45.5C33.6 43 24 33.4 24 21.5zm0 0" />
        <path fill="#3D86FF" d="M67 0h21.5C100.4 0 110 9.6 110 21.5S100.4 43 88.5 43H67zm0 0" />
        <path fill="#3D86FF"
          d="M110 64.5c0 11.9-9.6 21.5-21.5 21.5S67 76.4 67 64.5 76.6 43 88.5 43 110 52.6 110 64.5zm0 0" />
      </g>
      <line x1="25" y1="125" x2="105" y2="125" stroke="#3D86FF" stroke-width="3" stroke-linecap="round" />
    </g>
  </g>

  <!-- Backend -->
  <g transform="translate(0,592)">
    <!-- Container -->
    <rect width="794" height="264" rx="24" fill="#020617" stroke="#1e293b" stroke-width="1" />

    <!-- Title -->
    <text x="32" y="56" font-size="28" font-weight="600" font-family="Inter, Segoe UI, system-ui, sans-serif"
      fill="#e5e7eb">
      Back-end
    </text>

    <!-- Divider -->
    <line x1="32" y1="72" x2="762" y2="72" stroke="#1e293b" stroke-width="1" />

    <!-- Node.js -->
    <g transform="translate(32,92)">
      <rect width="130" height="140" rx="16" fill="#0b0f1a" stroke="#1e293b" stroke-width="1" />
      <text x="65" y="32" text-anchor="middle" font-size="14" font-weight="500"
        font-family="Inter, Segoe UI, system-ui, sans-serif" fill="#3D86FF">
        Node.js
      </text>
      <g transform="translate(38, 52) scale(0.4)">
        <path fill="#3D86FF"
          d="M112.771 30.334L68.674 4.729c-2.781-1.584-6.402-1.584-9.205 0L14.901 30.334C12.031 31.985 10 35.088 10 38.407v51.142c0 3.319 2.084 6.423 4.954 8.083l11.775 6.688c5.628 2.772 7.617 2.772 10.178 2.772 8.333 0 13.093-5.039 13.093-13.828v-50.49c0-.713-.371-1.774-1.071-1.774h-5.623C42.594 41 41 42.061 41 42.773v50.49c0 3.896-3.524 7.773-10.11 4.48L18.723 90.73c-.424-.23-.723-.693-.723-1.181V38.407c0-.482.555-.966.982-1.213l44.424-25.561c.415-.235 1.025-.235 1.439 0l43.882 25.555c.42.253.272.722.272 1.219v51.142c0 .488.183.963-.232 1.198l-44.086 25.576c-.378.227-.847.227-1.261 0l-11.307-6.749c-.341-.198-.746-.269-1.073-.086-3.146 1.783-3.726 2.02-6.677 3.043-.726.253-1.797.692.41 1.929l14.798 8.754a9.294 9.294 0 004.647 1.246c1.642 0 3.25-.426 4.667-1.246l43.885-25.582c2.87-1.672 4.23-4.764 4.23-8.083V38.407c0-3.319-1.36-6.414-4.229-8.073zM77.91 81.445c-11.726 0-14.309-3.235-15.17-9.066-.1-.628-.633-1.379-1.272-1.379h-5.731c-.709 0-1.279.86-1.279 1.566 0 7.466 4.059 16.512 23.453 16.512 14.039 0 22.088-5.455 22.088-15.109 0-9.572-6.467-12.084-20.082-13.886-13.762-1.819-15.16-2.738-15.16-5.962 0-2.658 1.184-6.203 11.374-6.203 9.105 0 12.461 1.954 13.842 8.091.118.577.645.991 1.24.991h5.754c.354 0 .692-.143.94-.396.24-.272.367-.613.335-.979-.891-10.568-7.912-15.493-22.112-15.493-12.631 0-20.166 5.334-20.166 14.275 0 9.698 7.497 12.378 19.622 13.577 14.505 1.422 15.633 3.542 15.633 6.395 0 4.955-3.978 7.066-13.309 7.066z" />
      </g>
      <line x1="25" y1="125" x2="105" y2="125" stroke="#3D86FF" stroke-width="3" stroke-linecap="round" />
    </g>

    <!-- Fastify -->
    <g transform="translate(182,92)">
      <rect width="130" height="140" rx="16" fill="#0b0f1a" stroke="#1e293b" stroke-width="1" />
      <text x="65" y="32" text-anchor="middle" font-size="14" font-weight="500"
        font-family="Inter, Segoe UI, system-ui, sans-serif" fill="#3D86FF">
        Fastify
      </text>
      <g transform="translate(38, 52) scale(0.4)">
        <path fill="#3D86FF"
          d="m89.663 24.816-.162-.253-.001.001-.006.004a.513.513 0 0 1-.026.016l-.103.064a60.12 60.12 0 0 1-1.901 1.121 69.437 69.437 0 0 1-5.182 2.645c-4.196 1.919-9.503 3.791-14.045 3.691-2.294-.051-4.2-.242-5.997-.431l-.294-.031c-1.686-.178-3.294-.347-5.041-.384-3.707-.078-8.022.443-15.121 2.707-7.158 2.282-11.743 6.925-15.043 11.348-1.281 1.717-2.374 3.407-3.345 4.911-.278.43-.546.845-.806 1.241-1.18 1.797-2.17 3.17-3.143 3.876-2.054 1.489-6.299 4.657-10.029 7.45a4307.818 4307.818 0 0 0-4.874 3.656L3.03 67.586l-.415.313-.108.082-.028.021-.007.005-.002.001.134.178-.134-.177-.145.109.029.179.028.172.056.343.331-.105 10.46-3.331c-.395.422-.931 1.01-1.611 1.792-1.614 1.858-4.039 4.81-7.323 9.223a3.526 3.526 0 0 1-.071-.066l-.664-.611.167.886.012.064.011.059.033.05.073-.048-.073.048.001.002.003.005.012.019.048.072a24.262 24.262 0 0 0 .882 1.198 24.062 24.062 0 0 0 2.483 2.721c1.026.954 2.232 1.872 3.533 2.453 1.303.582 2.717.834 4.138.425h.001c.52-.152 1.094-.39 1.709-.697 2.15 1.181 4.939 2.332 8.02 2.654l.751.079-.492-.573-.001-.001-.004-.005a.245.245 0 0 0-.018-.02l-.068-.081a54.757 54.757 0 0 1-1.165-1.444 47.48 47.48 0 0 1-2.4-3.368l.833-.541 4.288 1.576.458.168-.057-.485-.436-3.716 3.933 1.445.471.173-.071-.497-.509-3.568c.485-.25.965-.487 1.445-.708l.131-.059.036-.137 4.498-17.014 17.815-12.152-1.125 2.83v.001c-1.875 4.61-4.568 7.452-6.786 9.141a16.783 16.783 0 0 1-2.813 1.747 11.248 11.248 0 0 1-1.059.449l-.056.019-.005.002a.069.069 0 0 0-.008.003l-.003.001-.009.003-.009.003-2.975 1.128-.073.026-.05.059-.345.405c-.926 1.084-1.643 1.923-2.202 3.389-.621 1.628-1.046 4.02-1.425 8.409l-.036.419.408-.103c1.753-.44 3.402-.539 4.879-.141 3.893 1.049 6.525 3.923 7.92 6.876.697 1.476 1.08 2.961 1.159 4.231.08 1.282-.152 2.293-.622 2.874-.509.629-1.733 1.721-3.318 3.035h-3.433l-.005.295-.042 2.487-.002.002-.138.107h-3.493l-.005.295-.038 2.422-.416.313-.252.19c-1.454.002-3.115-.618-4.447-1.268a21.133 21.133 0 0 1-2.146-1.211 4.868 4.868 0 0 1-.127-.084l-.032-.022-.006-.004-.001-.001-.002-.001-.47-.323v.571c0 1.295.534 2.905 1.048 4.164a27.627 27.627 0 0 0 .949 2.06l.002.003-.123.088.262.175.085.157.089-.042.024.016.277.175a31.893 31.893 0 0 0 4.483 2.301c1.378.569 2.931 1.078 4.477 1.314 1.544.236 3.102.201 4.476-.338 1.192-.467 2.838-1.417 4.781-2.632 1.336-.835 2.823-1.804 4.413-2.839.729-.475 1.479-.963 2.246-1.459 4.885-3.159 10.465-6.638 15.63-8.874l31.427-8.279.148-.039.055-.143 4.147-10.744.211-.547-.567.15-23.591 6.215V65.12l27.898-7.35.148-.039.055-.143 4.147-10.744.211-.547-.567.15L85.4 54.848v-9.032l36.183-9.534.148-.039.055-.143 3.863-10.004.035-.092-.026-.095-.168-.62-.078-.287-.288.076-37.453 9.868c1.73-2.73 2.328-5.184 2.48-7.005.082-.982.033-1.778-.037-2.332a7.645 7.645 0 0 0-.147-.814 2.191 2.191 0 0 0-.012-.046l-.004-.013-.001-.004v-.001l-.287.085zm0 0-.162-.253.336-.214.113.382-.287.085zm-.288.085c0-.001 0-.001 0 0zM64.657 56.695l7.017-1.85-2.232 5.783-7.017 1.85 2.232-5.783zm4.357 6.619-2.232 5.787-7.017 1.851 2.233-5.788 7.016-1.85zm10.077-2.163-2.232 5.787-7.017 1.851 2.233-5.788 7.016-1.85z" />
        <path fill="#3D86FF"
          d="M43.745 104.119a11.71 11.71 0 0 1-1.774-.142c-1.386-.211-2.916-.66-4.546-1.333a32.38 32.38 0 0 1-4.528-2.324l-.164-.103-.196.093-.184-.342-.562-.374.267-.19-.122-.246c-.179-.367-.45-.944-.721-1.609-.71-1.738-1.07-3.178-1.07-4.277V92.13l.978.673.124.082a20.545 20.545 0 0 0 2.114 1.193c1.133.553 2.773 1.21 4.216 1.237l.076-.057.095-.072.299-.224.045-2.866h3.631l.048-2.891h3.621c1.674-1.39 2.748-2.374 3.193-2.924.426-.527.628-1.5.556-2.667-.08-1.282-.481-2.746-1.131-4.121a13.298 13.298 0 0 0-2.956-4.06 11.313 11.313 0 0 0-4.772-2.655c-1.351-.364-2.897-.317-4.728.142l-.816.206.073-.839c.374-4.321.792-6.781 1.444-8.49.577-1.514 1.317-2.38 2.254-3.477l.089-.105.254-.299.101-.119.144-.055 2.994-1.135.031-.01.049-.016a11.163 11.163 0 0 0 1.026-.436 16.436 16.436 0 0 0 2.762-1.716 19.518 19.518 0 0 0 3.469-3.422c1.282-1.621 2.359-3.484 3.2-5.539v-.007l.024-.052.76-1.912-16.915 11.537-4.469 16.906-.072.274-.258.118c-.397.183-.805.381-1.243.604l.622 4.35-4.418-1.623.493 4.2-5.064-1.861-.456.296a47.135 47.135 0 0 0 2.222 3.095c.388.499.704.888.901 1.126.11.134.198.238.257.309l.073.086a.055.055 0 0 1 .007.009l.08.078v.016l.913 1.062-1.502-.158c-2.609-.273-5.298-1.153-7.996-2.615a10.37 10.37 0 0 1-1.593.639l-.027.008a.126.126 0 0 1-.01.003l-.03.009c-1.345.376-2.792.225-4.304-.45-1.175-.525-2.391-1.368-3.615-2.507a24.84 24.84 0 0 1-3.221-3.698l-.087-.124-.006.004-.159-.244-.052-.069v-.011l-.019-.028-.033-.181-.331-1.775 1.155 1.062c3.307-4.431 5.702-7.32 7.138-8.973.296-.34.581-.664.855-.968L2.86 68.992l-.663.21L2 67.987l.435-.327.193-.145.79-.594.948-.712c1.145-.86 2.92-2.192 4.874-3.656 3.399-2.546 7.899-5.905 10.033-7.453.912-.661 1.886-1.996 3.068-3.797.259-.395.528-.811.805-1.239.97-1.501 2.069-3.201 3.356-4.927 1.971-2.642 3.975-4.778 6.126-6.531a27.551 27.551 0 0 1 9.067-4.924c6.269-2 10.82-2.813 15.218-2.721 1.76.037 3.366.206 5.066.386l.294.031c1.957.206 3.757.38 5.972.429 2.044.045 4.421-.317 7.063-1.077 2.132-.613 4.437-1.484 6.851-2.587a70 70 0 0 0 5.159-2.633 56.431 56.431 0 0 0 1.962-1.16l.072-.046.66-.421.311 1.052-.015.004c.029.14.069.356.104.634.095.753.108 1.559.038 2.394-.182 2.191-.9 4.374-2.137 6.501l37.311-9.83.376 1.382-.07.183-3.973 10.291-.297.078-35.96 9.475v8.412l32.642-8.602-.422 1.095-4.257 11.03-.297.078-27.675 7.292v8.408l23.215-6.115 1.135-.299-.422 1.095-4.257 11.031-.297.078-31.404 8.273c-5.05 2.189-10.465 5.543-15.565 8.842-.732.473-1.45.941-2.145 1.394l-.124.081c-1.575 1.025-3.063 1.994-4.394 2.826-2.262 1.415-3.752 2.234-4.831 2.657-.844.33-1.8.496-2.857.496zM32.944 99.64l.271.171a31.78 31.78 0 0 0 4.439 2.278c1.586.655 3.068 1.091 4.407 1.295 1.674.255 3.128.147 4.321-.321 1.043-.409 2.502-1.213 4.732-2.607 1.327-.83 2.812-1.797 4.385-2.821l.124-.081a706.06 706.06 0 0 1 2.147-1.395c5.129-3.317 10.578-6.691 15.674-8.898l.021-.009.022-.006 31.427-8.279 4.146-10.744-23.967 6.314v-9.649l28.122-7.409 4.147-10.744L85.1 55.237v-9.653l36.407-9.593 3.863-10.004-.168-.619L87.01 35.43l.409-.645c1.423-2.245 2.242-4.556 2.434-6.869.082-.989.026-1.78-.036-2.269a7.475 7.475 0 0 0-.087-.538l-.2.059-.122-.19-.002-.003a.74.74 0 0 0-.043.027l-.034.196-.174-.026-.013-.035-.023.014c-.471.285-.978.581-1.508.88a70.134 70.134 0 0 1-5.204 2.657c-2.441 1.116-4.774 1.997-6.935 2.618-2.7.776-5.137 1.146-7.242 1.1-2.238-.049-4.051-.225-6.021-.432l-.294-.031c-1.687-.178-3.281-.346-5.016-.382-4.328-.091-8.821.714-15.023 2.693-3.268 1.042-6.17 2.618-8.87 4.818-2.112 1.721-4.083 3.822-6.024 6.424-1.276 1.71-2.369 3.401-3.333 4.894-.277.428-.547.846-.807 1.242-1.253 1.909-2.229 3.237-3.218 3.954-2.131 1.545-6.628 4.903-10.025 7.447a4106.538 4106.538 0 0 0-4.873 3.656l-.947.712-.79.594-.192.144-.142.106-.006-.008.03.184 11.557-3.68-.788.84a64.448 64.448 0 0 0-1.603 1.784c-1.459 1.679-3.911 4.638-7.309 9.205l-.198.266-.183-.167v.121l.122.174c.211.298.443.607.689.92.54.688 1.404 1.712 2.451 2.687 1.176 1.094 2.337 1.901 3.451 2.399 1.383.618 2.697.758 3.907.418l.038-.019h.028a10.45 10.45 0 0 0 1.619-.665l.14-.07.138.076c2.648 1.454 5.284 2.333 7.835 2.611v-.078l-.021-.025a49.146 49.146 0 0 1-1.172-1.454 47.155 47.155 0 0 1-2.416-3.39l-.162-.251.251-.162.832-.541.126-.082 4.43 1.628-.493-4.201 4.391 1.613-.54-3.779.19-.098c.518-.267.995-.5 1.457-.714l4.526-17.122 18.717-12.767-1.466 3.687v.009l-.025.053c-.865 2.126-1.977 4.056-3.305 5.734a20.08 20.08 0 0 1-3.576 3.528 17.156 17.156 0 0 1-2.864 1.778 11.676 11.676 0 0 1-1.091.463l-.061.021-.021.007-2.974 1.128-.255.3-.09.105c-.935 1.094-1.61 1.884-2.15 3.301-.63 1.654-1.038 4.067-1.407 8.328 1.932-.485 3.578-.531 5.03-.14a11.92 11.92 0 0 1 5.023 2.793 13.893 13.893 0 0 1 3.091 4.244c.682 1.443 1.103 2.984 1.187 4.34.083 1.334-.161 2.429-.688 3.081-.484.599-1.583 1.605-3.36 3.078l-.083.069H42.36l-.044 2.613-.123.118-.014.007-.02.015-.094.073-.082.064h-3.302l-.04 2.568-.116.088c-.14.106-.279.211-.418.314l-.095.072-.156.117-.08.061h-.107c-.874 0-2.374-.226-4.572-1.299a21.316 21.316 0 0 1-2.178-1.229 6.052 6.052 0 0 1-.131-.087l-.044-.029c0 1.007.355 2.408 1.026 4.05a26.393 26.393 0 0 0 .916 1.995l.006.006.021.047.089.177.009.006.003.006.101.063.029.019zm26.33-28.249 2.499-6.478 7.732-2.038-2.498 6.477-7.733 2.039zm2.948-5.976-1.966 5.097 6.302-1.662 1.966-5.096-6.302 1.661zm7.128 3.813 2.499-6.478 7.732-2.039-2.498 6.477-7.733 2.04zm2.949-5.976-1.966 5.097 6.302-1.662 1.966-5.096-6.302 1.661zm-10.366-.334 2.499-6.474 7.732-2.039-2.499 6.473-7.732 2.04zm2.948-5.972-1.966 5.092 6.302-1.662 1.965-5.092-6.301 1.662z" />
      </g>

      <line x1="25" y1="125" x2="105" y2="125" stroke="#3D86FF" stroke-width="3" stroke-linecap="round" />
    </g>

    <!-- NestJS -->
    <g transform="translate(332,92)">
      <rect width="130" height="140" rx="16" fill="#0b0f1a" stroke="#1e293b" stroke-width="1" />
      <text x="65" y="32" text-anchor="middle" font-size="14" font-weight="500"
        font-family="Inter, Segoe UI, system-ui, sans-serif" fill="#3D86FF">
        NestJS
      </text>
      <svg transform="translate(38, 52) scale(0.4)">
        <path fill="#3D86FF"
          d="M75.4.3c-.9 0-1.8.2-2.6.5 1.7 1.1 2.6 2.6 3.1 4.3 0 .2.1.4.1.6 0 .2.1.4.1.6.1 2.9-.8 3.3-1.4 5-1 2.2-.7 4.6.5 6.5.1.2.2.5.4.7-1.3-8.4 5.7-9.6 7-12.2.1-2.3-1.8-3.8-3.3-4.9C77.8.5 76.6.3 75.4.3zm10.5 1.8c-.1.8 0 .6-.1 1 0 .3 0 .6-.1.9-.1.3-.1.5-.2.8-.1.3-.2.5-.3.8-.1.2-.2.4-.3.7-.1.1-.2.3-.3.4-.1.1-.1.2-.2.3-.2.2-.3.5-.5.7l-.6.6c-.2.2-.4.4-.6.5-.7.5-1.5.9-2.2 1.4-.2.2-.5.3-.7.5-.2.2-.4.3-.6.5l-.6.6c-.2.2-.4.4-.5.7-.2.2-.3.5-.5.7-.1.3-.2.5-.4.8-.1.3-.2.5-.3.8-.1.3-.2.6-.2.8 0 .1 0 .3-.1.4 0 .1 0 .3-.1.4v1.4c0 .3 0 .5.1.8 0 .3.1.5.2.8.1.3.2.5.3.8.1.2.2.3.2.5l-7.6-2.9c-1.3-.4-2.5-.7-3.8-1-.7-.2-1.4-.3-2.1-.5-2-.4-4-.7-6-.9h-.2c-2-.2-3.9-.3-5.9-.3-1.5 0-2.9.1-4.3.2-2 .1-4 .4-6 .7l-1.5.3c-1 .2-2 .4-3 .7-.5.1-1 .3-1.5.4-.5.2-1 .4-1.4.6-.4.2-.7.3-1.1.5-.1 0-.1 0-.2.1-.3.2-.6.3-.9.5-.1 0-.2.1-.2.1-.4.2-.7.4-1 .5-.2.1-.5.2-.7.3-.1.1-.2.1-.3.2-.3.2-.6.3-.9.5-.3.2-.6.3-.8.5-.2.2-.5.3-.7.5 0 0-.1 0-.1.1-.2.1-.4.3-.6.5l-.1.1c-.2.1-.3.3-.5.4-.1 0-.1.1-.2.1-.2.1-.3.3-.5.4 0 .1-.1.1-.1.1l-.6.6-.1.1-.6.6s0 .1-.1.1l-.5.5c-.1.1-.2.1-.2.2l-.6.6c0 .1-.1.1-.1.2l-.8.8-.1.1c-.5.6-1.1 1.1-1.7 1.6-.6.5-1.2 1-1.9 1.5s-1.3.9-2 1.3-1.4.7-2.1 1c-.7.3-1.4.6-2.1.8-1.4.3-2.8.9-4 1 0-.5-.3-.4-.6-.4-.3.1-.6.1-.8.2-.3.1-.5.2-.8.3-.3.1-.5.2-.8.4-.2.2-.5.3-.7.5-.2.2-.5.4-.7.6-.2.2-.5.4-.7.6-.2.2-.4.4-.6.7-.2.3-.4.5-.5.8-.2.2-.3.5-.5.8-.1.3-.3.6-.4.9l-.3.9c-.1.3-.1.5-.2.8v.1c-.1.3-.1.7-.1.9.1-.1.1.1.1.3v.4c0 .2.1.4.1.6.1.2.1.4.2.6.1.2.2.4.4.6.1.2.3.4.4.6.2.2.4.4.6.5.2.2.4.4.6.5.8.7 1 .9 2 1.5.2.1.3.2.5.3h.1v.2c0 .3.1.5.2.8.1.3.2.6.3.8l.3.6c0 .1.1.1.1.2.1.3.3.5.4.7.2.2.3.5.5.7l.6.6.6.6H8c.2.2.4.3.6.5.2.2.5.3.7.4.2.1.5.3.8.4.2.1.4.2.7.2 0 0 .1 0 .1.1.1 0 .3.1.4.1-.1 1.8-.1 3.5.1 4.1.3.7 1.8-1.4 3.2-3.7-.2 2.3-.3 5 0 5.8.4.8 2.3-1.8 4.1-4.6 23.4-5.4 44.8 10.8 47.1 33.7-.4-3.6-4.8-5.6-6.9-5.1-1 2.4-2.7 5.6-5.4 7.5.2-2.2.1-4.4-.3-6.6-.7 3-2.1 5.9-4.1 8.3-3.1.2-6.3-1.3-7.9-3.6-.1-.1-.2-.3-.3-.4-.1-.2-.2-.5-.3-.7-.1-.2-.2-.5-.2-.7v-.7-.5c0-.2.1-.5.2-.7.1-.2.1-.5.2-.7.1-.2.2-.5.4-.7.6-1.6.6-2.9-.5-3.6l-.6-.3c-.1 0-.3-.1-.4-.1-.1 0-.2-.1-.3-.1-.2-.1-.5-.1-.7-.2-.2-.1-.5-.1-.7-.1-.2 0-.5-.1-.7-.1h-.5c-.3 0-.5 0-.7.1-.2 0-.5.1-.7.1-.2.1-.5.1-.7.2-.2.1-.4.2-.7.3l-.6.3c-7.7 5-3.1 16.8 2.1 20.2-2 .4-4 .8-4.6 1.2l-.1.1c1.4.9 2.9 1.6 4.5 2.2 2.1.7 4.4 1.3 5.4 1.6 2.7.6 5.5.8 8.3.6 14.6-1 26.6-12.2 28.8-26.8.1.3.1.6.2.9.1.6.2 1.2.3 1.9.1.3.1.6.1.9v.1c0 .3.1.6.1.9 0 .4.1.7.1 1.1V91.6c0 .3-.1.5-.1.8v.3c0 .3-.1.6-.1 1-.1.3-.1.6-.2.9v.1c-.1.3-.1.6-.2.9v.1c-.1.3-.1.6-.2.9v.1l-.3.9v.1c-.1.3-.2.7-.3 1-.1.3-.2.6-.4 1-.1.3-.2.7-.4 1-.1.3-.3.6-.4 1-.1.3-.3.6-.4.9 0 .1-.1.2-.1.2s0 .1-.1.1c-2.1 4.3-5.3 8.1-9.3 11.1-.3.2-.5.4-.8.6-.1.1-.2.1-.2.2-.2.2-.5.3-.7.5l.1.2c.5-.1.9-.1 1.4-.2.9-.1 1.7-.3 2.6-.5.2 0 .5-.1.7-.2.2 0 .3-.1.5-.1s.5-.1.7-.1c.2-.1.4-.1.6-.2 3.3-.8 6.5-1.9 9.6-3.2-5.3 7.2-12.3 13-20.5 16.8 3.8-.3 7.6-.9 11.3-2 13.3-3.9 24.5-12.9 31.2-25-1.4 7.6-4.4 14.9-8.9 21.3 3.2-2.1 6.1-4.6 8.8-7.3 7.4-7.7 12.3-17.6 13.9-28.1 1.1 5.2 1.5 10.6 1 15.9 23.9-33.3 2-67.8-7.2-76.9 0-.1-.1-.1-.1-.2v0c0 .4 0 .8-.1 1.2-.1.8-.2 1.5-.3 2.2-.2.7-.4 1.5-.6 2.2-.2.7-.5 1.4-.8 2.1-.3.7-.6 1.4-1 2-.4.6-.8 1.3-1.2 1.9-.4.6-.9 1.2-1.4 1.8-.5.6-1 1.1-1.6 1.7-.3.3-.6.6-1 .8-.3.2-.5.4-.8.7-.6.5-1.2.9-1.9 1.3-.6.4-1.3.8-2 1.1l-2.1.9c-.7.3-1.4.5-2.1.7-.7.2-1.5.4-2.2.5-.8.1-1.5.2-2.2.3-.5 0-1.1.1-1.6.1-.8 0-1.5-.1-2.2-.1-.8-.1-1.5-.2-2.2-.3-.8-.1-1.5-.3-2.2-.6.7-.1 1.5-.1 2.2-.3.8-.1 1.5-.3 2.2-.5.7-.2 1.5-.4 2.1-.7l2.1-.9c.7-.3 1.3-.7 2-1.1.6-.4 1.3-.9 1.9-1.3.6-.5 1.2-1 1.7-1.5.6-.5 1.1-1.1 1.6-1.6.5-.6 1-1.2 1.4-1.8.1-.1.1-.2.2-.3.3-.5.7-1.1 1-1.6.4-.7.7-1.3 1-2 .3-.7.6-1.4.8-2.1l.6-2.1c.1-.8.3-1.5.3-2.2.1-.8.1-1.5.1-2.2 0-.5 0-1.1-.1-1.6-.1-.8-.2-1.5-.3-2.2-.1-.8-.3-1.5-.5-2.2-.2-.7-.5-1.4-.7-2.1-.3-.7-.6-1.4-.9-2-.4-.7-.7-1.3-1.1-2-.4-.6-.9-1.2-1.3-1.8-.5-.6-1-1.1-1.5-1.7-.3-.3-.6-.6-.9-.8-1.5-1.2-3-2.2-4.6-3.2-.2-.1-.4-.2-.7-.3-1.3-1.1-2.3-1.4-3.3-1.8z" />
      </svg>
      <line x1="25" y1="125" x2="105" y2="125" stroke="#3D86FF" stroke-width="3" stroke-linecap="round" />
    </g>

    <!-- Django -->
    <g transform="translate(482,92)">
      <rect width="130" height="140" rx="16" fill="#0b0f1a" stroke="#1e293b" stroke-width="1" />
      <text x="65" y="32" text-anchor="middle" font-size="14" font-weight="500"
        font-family="Inter, Segoe UI, system-ui, sans-serif" fill="#3D86FF">
        Django
      </text>
      <g transform="translate(38, 52) scale(0.4)" fill="#3D86FF">
        <path
          d="M59.448 0h20.93v96.88c-10.737 2.04-18.62 2.855-27.181 2.855-25.551-.001-38.87-11.551-38.87-33.705 0-21.338 14.135-35.2 36.015-35.2 3.398 0 5.98.272 9.106 1.087zm0 48.765c-2.446-.815-4.485-1.086-7.067-1.086-10.6 0-16.717 6.523-16.717 17.939 0 11.145 5.845 17.26 16.582 17.26 2.309 0 4.212-.136 7.202-.542z" />
        <path
          d="M113.672 32.321V80.84c0 16.717-1.224 24.735-4.893 31.666-3.398 6.661-7.883 10.873-17.124 15.494l-19.435-9.241c9.242-4.35 13.726-8.153 16.58-14 2.99-5.979 3.943-12.91 3.943-31.122V32.321zM92.742.111h20.93v21.474h-20.93z" />
      </g>

      <line x1="25" y1="125" x2="105" y2="125" stroke="#3D86FF" stroke-width="3" stroke-linecap="round" />
    </g>

    <!-- Flask -->
    <g transform="translate(632,92)">
      <rect width="130" height="140" rx="16" fill="#0b0f1a" stroke="#1e293b" stroke-width="1" />
      <text x="65" y="32" text-anchor="middle" font-size="14" font-weight="500"
        font-family="Inter, Segoe UI, system-ui, sans-serif" fill="#3D86FF">
        Flask
      </text>
      <g transform="translate(38, 52) scale(0.4)">
        <path fill="#3D86FF"
          d="M44.44 100.63c-4.23-3.33-8.74-6.52-11.83-11.01-6.49-7.92-11.49-17.1-14.9-26.74-2.07-6.27-2.77-12.99-5.44-19.02-2.78-4.38.48-9.16 5.27-10.55 2.13-.41 5.89-2.43 1.36-.98-4.06 2.98-4.45-2.71-.29-3.07 2.84-.38 3.89-2.7 2.92-4.8-3.05-1.99 7.4-4.18 2.14-7.15-5.48-5.91 7.66-7.05 4.42-.33-.77 5.16 9.18-.95 6.87 5.01 2.35 2.86 8.8.65 8.63 4.67 3.42.24 4.6 3.11 7.8 3.33 3.33 1.5 9.36 2.69 10.49 6.44-3.3 2.61-10.95-5.4-11.31 1.84 1 10.69.74 21.7 4.65 31.88 1.85 6.16 6.33 11.01 10.38 15.81 3.88 4.7 9.12 8.01 14.48 10.8 4.69 2.21 9.75 3.68 14.87 4.6 2.07-1.59 5.74-7.48 8.97-5 .16 2.8-6.42 5.84-.31 5.54 3.59-1.08 6.08 2.77 9.04-.71 2.72 3.23 11.32-2.06 9.38 4.53-2.62 1.69-6.44.67-9.07 3-4.33-2.16-7.77 1.93-12.56 1.42-5.32.95-10.73 1.34-16.13 1.34-8.85-.7-17.89-.99-26.3-4.07-4.74-1.38-9.37-4.08-13.53-6.78zm7.47 3.24c4.63 2 9.16 4.11 14.23 4.75 8.05 1.12 16.37 2.84 24.45 1.27-3.66-1.65-7.44.64-11.08-1.18-4.37.94-9.06-.24-13.5-.82-5.05-2.25-10.5-3.8-15.23-6.72-5.91-2.16 3.06 2.77 4.65 3.17 3.69 2.1-4.06-1.08-5.16-1.95-3.09-1.74-3.49-1.37-.31.39.64.37 1.28.77 1.95 1.09zm-8.81-6.23c4.49 1.66-.02-3.16-2.07-2.88-.91-1.58-3.48-2.58-1.67-3.43-3.26 1.13-3.42-4.3-4.95-3.53-3.45-1.09-1.34-4.95-5.45-7.32-.37-2.5-4.08-4.66-5.26-8.43-.52-1.93-4.19-7.46-1.94-2.31 1.92 4.96 5.29 9.21 8.1 13.45 2.18 4.04 4.76 8.26 8.72 10.78 1.34 1.3 2.63 3.27 4.52 3.67zM30.17 83.45c.16-.68.82 1.46 0 0zm18.3 16.18c1-.44-1.43-.56 0 0zm2.44.89c-.25-1.23-1.11.69 0 0zm3.05 1.27c1.45-1.38-2.24-.87 0 0zm5.22 2.91c.89-1.3-2.82-.49 0 0zm-10.03-6.99c2.25-1.46-2.91-.02 0 0zm2.29 1.14c-.07-.77-.82.34 0 0zm11.43 7.13c1.84 1.16 10.73 2.54 5.16.48-.93.2-10.33-2.66-5.16-.48zM44.72 91.85c-.18-.77-2.85-.85 0 0zm5.32 3.1c1.39-.96-2.87-.74 0 0zm4.48 2.75c1.98-.75-3.23-.75 0 0zm-11.97-8.21c2.16 1.65 8.7.21 3.3-.99-2.45-1.31-7.99-2.2-4.22.79l.92.2zm15 9.16c.9-1.53-3.77-.88 0 0zm-4.56-3.63c5.27 1.49-4.43-3.34-1.3-.55l.7.32.6.23zm9.14 5.28c4.99.05-4.51-.68 0 0zm-21.5-13.7c-.19-.93-1.23.08 0 0zm29.94 18.44c.14-1.68-1.62 1.25 0 0zM49.15 91.82c-.3-.88-1.56-.04 0 0zm-8.04-5.8c2.86-.17-3.93-1.26 0 0zm-9.54-6.16c-.36-1.38-3.12-2.47 0 0zM56.6 95.74c-.52-.6-.25.13 0 0zm15.58 9.56c-.05-.91-.85.35 0 0zM55.22 94.32c.28-1.18-2.44-.36 0 0zm-11.6-7.36c2.13-.23-3.42-1.44 0 0zm19.63 12.2c3.32-1.32-3.24-.64 0 0zm-10.21-6.93c3.83.49-4.56-2.61-.84-.28l.84.28zm13.31 8.19c3.58-2.14 2.4 5.01 6.07.6 3.62-2.64-3.13 3.27 1.33.47 3.23-2.16 7.99 1.02 11 2.06 2.16-.11 4.27 1.87 6.49.67 4.27-1.15-8.36-1.71-5.05-3.75-3.91 1.14-6.8-1.36-8.72-3.86-4.39-1.01-9.46-3.25-11.65-7.14-.89-1.46 1.29.21-.77-2.18-2.64-2.35-3.96-5.02-5.73-7.88-2.12-1.13-2.37-4.46-2.58-.11.02-2.74-2.56-4.59-3.19-3.82-.01-2.64 2.76-1.32.82-3.27-.42-2.74-1.79-5.59-2.2-8.68-.64-1.49-.09-4.68-2.19-1.31-.76 3.57-.25-4.38.94-1.76 1.56-2.67-.56-2.36-.65-1.99 1.02-2.26.64-5.46-.27-4.24.54-2.39.86-8.8-.81-7.66 1.01-2.5 1.92-11.44-2.47-8.03-1.78.03-4.85.64-6.31 1.37 4.56 2.51-.46.91-2.32.51-.24 2.33-2.08 1.32-4.38 1.34 3.67.45-1.79 3.75-3.89 2.47-2.74 1.31 2.36 4.57.05 5.58.28 1.52-4.19-.55-3.84 2.96-2.65-1.12-.36 4.16.96 2.38 4.51 1.22 3.18 4.01 3.29 6.65-.74 1.54-3.63-3.62-.64-3.38-2.36-3.83-2.61-1.38-4.56.39-.45.13 4.99 2.53 1.57 3.72 3.01.47 3.1 3.1 3.71 4.76 1.81 1.88 1.44-2.08 3.6.18-1.37-2.02-7.25-5.68-2.52-4.51-.03-2.03-.86-3.67.6-3.63 1.44-2.6-1.51 6.42 1.73 3.11.9-.39 1.12-2.6 2.73.21 2.34 2.3.85 3.97-2.46 1.86.59 2.01 4.42 2.72 3.7 5.86.76 2.76 1.83 1.74 2.76 1.58.73 2.68 1.14.71 1.18-.57 3.34.72 2.56 2.69 3.6 4.07 2.3 1.04-3.29-7.04.66-2.43 4.16 3.75 1.56 5.32-2.17 4.72 2.36-.19 3.12 3.19 6.07 3.07 2.69 1.28 4.52 6.2-.12 4.15-1.61-1.45-7.31-3.24-2.65-.48 4.3 1.99 7.71 3.18 11.86 5.68 2.96 2.12 4.25 4.54 5.37 5.02-2.49 1.19-7.51-.95-3.78-1.61-2.33-.42-4.94-1.6-2.71 1.3 1.89 1.58 6.71 1.42 7.58 1.59-.73 1.61-1.99 1.74.03 1.86-2.25 1.22.72 1.41.93 2.1zm-4.6-13c-1.37-1.43-1.72-4.11-.24-1.78.75.3 2.43 4.38.24 1.78zm14.99 9.52c.85-.06.02.65 0 0zM59.59 83.91c-.06-2.17.49 1.67 0 0zM58.1 81.9c-1.73-3.32 2.17.95 0 0zM40.04 69.44c1.01-.27.5 1.73 0 0zm14.37 7.79c.62-2.33.73 1.96 0 0zm-10.15-7.06c-.71-1.29 1.5 1.21 0 0zm8.71 2.79c-1.63-3.65 1.16-2 .36.6l-.36-.6zM37.95 62.95c-.73-1.2-1.93-4.72-1.55-5.79.35 1.75 3.72 7.53 1.65 2.39-2.28-4.3 2.73 1.4 3.25 2.47.24 1.07-1.41-.29-.29 2.21-2.04-2.85-1.2 1.58-3.06-1.28zm-4.64-3.2c.19-2.79 1.06 1.91 0 0zm2.08.72c1-2.11 1.69 2.93 0 0zm-5.02-3.89c-1.73-1.72-2.98-3.3.08-1.07 1.18.05-2.62-3.6.28-1.16 3.06.56 1.51 5.01-.36 2.23zm2.64-.07c1-.99.53.98 0 0zm1.62.52c-1.52-2.85 1.85 1.2 0 0zm-3.22-3.08c-5.02-4.47 6.31 2.34.82.83l-.82-.83zm14.39 8.36c-2.18-1.3-.58-9.18.16-3.79 2.11-.68-.12 2.78 1.46 2.75-.24 2.18-.95 2.97-1.62 1.04zm5.33 3.15c.21-2.38.45 1.62 0 0zm-.93-.92c.24-1.01.03 1.2 0 0zM32.39 52.48c-3.23-4.45 9.38 4.51 2.07 1.13-.77-.21-1.69-.28-2.07-1.13zm10.26 5.43c-.31-3.75.68.62 0 0zm7.78 5c.6-2.14.05 1.41 0 0zM32.89 50.78c1.92-.41 7.95 3.37 2.41 1.08-.62-.69-1.93-.38-2.41-1.08zm16.47 8.21c.2-3.84 1.15-2.29.01.55l-.01-.55zm-15.05-9.55c.78-1.15-2.08-5.18.41-1.45 1.08.85 3.11 1.43 1.31 1.79 2.84 2.5-.68.68-1.72-.34zm14.24 8.35c.54-4.37.47 2.56 0 0zM32.68 45.41c.6-.26.32.79 0 0zm3.71 2.21c.96-2.01 1.77 2.23 0 0zm10.47 5.82c0-.77.2 1.12 0 0zm-.6-1.34c-1.45-3.59 1.35 1.9 0 0zm-.89-2.35c-.25-1.48.83 1.86 0 0zm1.45-2.36c-1-1.76 1.26-7.75 1.51-4.03-1.05 2.89-.3 4.51.43.63 1.36-3.06-.29 6.02-1.94 3.4zm1.49-8.91c.44-.53.1.65 0 0zM45.82 87.6c-.59-.52.07.33 0 0zm5.13 2.6c2.86.74 2.84-.44.26-.79-1.39-1.29-5.77-2.66-1.85-.16.27.65 1.09.63 1.59.95zm-10.14-6.74c1.57 1.18 5.93 3.32 2.24.45 1.24-1.44-2.38-2.21-1.18-3.18-3.06-1.87-2.41-1.7-.27-1.64-3.67-1.64.53-1.52.33-2.36-1.42-.28-7.03-2.5-3.73.18-3.36-1.71-.8.64-1.82.39-3.44-.94 3.06 2.62-.54 1.73 1.97 1.56 5.3 4 .83 1.65-.57.85 3.21 2.14 4.14 2.78zm5.37 3.09c6.53 2.1-3.2-2.58 0 0zm27.5 16.65c.08-1.3-.9 1.11 0 0zm2.82 1.19c1.51-1.46.06 2.33 2.5-.36.03-1.92-.07-3.06-2.8-.72-.75.42-1.09 2.19.3 1.08zM31.65 76.22c-.47-1.82-3.25-1.81 0 0zm3.01 1.98c-1.12-1.86-4-1.68 0 0zm17.17 10.35c1.68 1.49 7.7 1.09 2.03.18-.83-1.24-5.32-.94-2.03-.18zm23.6 14.57c2.57-2.16-2.5.97 0 0zm5.36 3.69c.02-.69-1.11.3 0 0zm.01-.97c2.86-3.03-2.77.18 0 0zM24.22 70.01c-2.43-3.47-1.51-5.03-3.86-7.87-.45-2.17-4.03-7.09-1.85-1.88 1.99 3.05 2.58 7.77 5.71 9.75zm55.68 34.87c5.26-3.4-2.15-1.48 0 0zm4.01 1.57c2.64-2.26-1.66-.47 0 0zM30.75 72.38c.76-1.12-1.94-.14 0 0zm52.33 32.99c2.55-1.64-.59-1.39-.46.15l.46-.15zM48.5 83.58c-.09-1.11-1.35.09 0 0zm2.14 1.23c-.69-1.38-1.05.21 0 0zm36.53 21.67c3.27-2.36-1.98-.45-.68.45l.68-.45zm-1.26-.6c2.67-2.23-2.8.99 0 0zm6.39 4.25c1.79-1.19-2.17-.38 0 0zM32.39 71.57c2.39.54 9.56 5.89 5.33.37-2.17-.64-.87-5.94-3.08-5 1.48 2.48 1.22 3.53-1.9 1.97-3.91-1.91-2.2.94-1.43 1.73-1.04.25 1.39.91 1.08.93zm-10.9-8.61c.43-1.77-3.95-9.75-2.07-4 .68 1.21.61 3.49 2.07 4zM41.5 75.3c-1.23-1.03-.06-.15 0 0zm3.03.71c0-1.88-3.35-.77 0 0zm26.3 16.57c-.5-1.28-1.98-.02 0 0zm1.26.93c-.18-.72-.72.14 0 0zm10.43 6.56c1-.74-1.25-.09 0 0zM26.93 64.35c2.87-1.11-3.07-.79 0 0zm41.59 26.2c-.04-1.86-1.83.46 0 0zM25.8 61.71c1.84-.62-1.71-.41 0 0zm5.34 2.59c-.03-.61-.56.23 0 0zm65.22 39.99c2.37-.48 7.77 1.21 8.64-.63-2.88-.07-9.95-2.03-10.28.46l.63.1 1.01.07zM32.84 64.73c.05-1.88-1.46-.07 0 0zm-14.05-9.75c-.64-3.58-2.43-.54 0 0zm3.35.84c.04-1.15-3.07-1.03 0 0zm1.91.94c-.55-.44-.43.57 0 0zm12.06 7.73c.57-.52-1.35-.38 0 0zm-13.33-9.85c-.33-2.71-3.88-.4 0 0zm-6.87-4.46c-.1-1.25-.67.47 0 0zm1.02-.77c-.17-1.48-.88.19 0 0zm5.65 3.37c2.39-.94-4.35-1.94-.49-.18l.49.18zm75.59 46.69c1.53-1.4-1.94-.43 0 0zm9.13 4.74c.61-1.81-1.54.23 0 0zM23.15 49.82c.26-1.75-1.89.35 0 0zm-8.03-5.38c-.43-2.47-.37-6.82 3.76-5.35-5.51 1.1 3.82 6.85 2.64 2.31 2.32.11 4.53-1.37 3.32.88 4.57-.5 7.73-4.46 12.14-3.91 3.44-.46 7.19-.8 10.89-2.18 3.04-.22 5.97-3.5 4.31-5.44-4.15-.35-8.5.17-13.08 1.08-5.08 1.06-9.7 3.06-14.83 3.93-5 .67 1 1.85-.43 2.11-2.61.9 3.11 1.52-.34 2.47-2.13-.41-4.35-1.14-3.44-3.38-4.79.62-9 2.61-5.21 7.48h.27zm11.54-5.88c1.12-4.14 6.01 3.4 1.84.55-.5-.38-1.32-.68-1.84-.55zm.22-2.01c1.62-1.2.86.68 0 0zm2.06.04c.15-1.9 4.71 1.01.75.68l-.75-.68zm2.81-1.14c1.03-1.2.3 1.07 0 0zm.72-.48c1.71-2.06 9.69-1.31 3.85-.2-1.56-1.18-2.76.7-3.85.2zm10.42-1.6c-.26-5.62 5.18 1.99 0 0zm2.96-.02c1.08-2.83 4.2-1.14.5-.57.08.3-.11 1.46-.5.57zM21.99 48.37c3.23-1.98-3.43-1.72 0 0zm2.39.66c1.13-1.2-2.46-.49 0 0zm-7.04-4.99c1.85-1.42-2.18-.54 0 0zm95.35 59.65c.05-1.65-1.41.74 0 0zM103 97.08c.28-1.9-1.24.16 0 0zm12.36 7.25c2.58.01 7.82-.8 2.2-.8-.88.13-5.13.11-2.2.8zM26.48 47.87c2.09-.14 3.27-2.3-.41-2.18-5.69-.59 5.02 1.95-.73 1.22-.77.51 1.09 1.1 1.14.96zm1.84.93c-.22-1.34-.65.71 0 0zm2.18-5.82c.9-1.12-1.26-.3 0 0zm-6.95-11.6c3.73-1.27 8.82-2.69 10.58.62-1.79-2.15-.72-4.28.97-1.12 2.39 3.19 3.59-1.45 2.03-2.52 1.77 2.2 3.79 3.24 1.19.14 2.83-3.4-5.66.45-7.59.41-.92.41-9.58 2.2-7.18 2.47zm2.19-4.18c2.13-1.6 7.35.96 4-1.59-.33-.3-7.35 1.93-4 1.59zm7.75.32c2.49.06-1.07-3.34 1.89-1.8-.49-1.59-3.45-1.89-4.9-2.52-.82 1.45 1.66 4.34 3.01 4.32zm-6.39-7.04c.86-1.16-1.51.6 0 0zm3.16.76c4.01-.53-1.02-1.72-.81-.04l.81.04zm-5.91-4.62c-2.82-3.69 5.31.62 2.44-3.24-2.41-1.92-4.73 2.16-2.44 3.24zm36.21 19.5c1.29-2.29-5.34-3.09-.87-.81.42.14.32.97.87.81z" />
      </g>
      <line x1="25" y1="125" x2="105" y2="125" stroke="#3D86FF" stroke-width="3" stroke-linecap="round" />
    </g>
  </g>

  <!-- DevOps & Tooling -->
  <g transform="translate(826,592)">
    <!-- Container -->
    <rect width="344" height="264" rx="24" fill="#020617" stroke="#1e293b" stroke-width="1" />

    <!-- Title -->
    <text x="32" y="56" font-size="28" font-weight="600" font-family="Inter, Segoe UI, system-ui, sans-serif"
      fill="#e5e7eb">
      DevOps &amp; Tooling
    </text>

    <!-- Divider -->
    <line x1="32" y1="72" x2="304" y2="72" stroke="#1e293b" stroke-width="1" />

    <!-- Docker -->
    <g transform="translate(32,92)">
      <rect width="130" height="140" rx="16" fill="#0b0f1a" stroke="#1e293b" stroke-width="1" />
      <text x="65" y="32" text-anchor="middle" font-size="14" font-weight="500"
        font-family="Inter, Segoe UI, system-ui, sans-serif" fill="#3D86FF">
        Docker
      </text>
      <g transform="translate(34, 46) scale(0.5)">
        <path fill-rule="evenodd" clip-rule="evenodd" fill="#3D86FF"
          d="M73.8 50.8h11.3v11.5h5.7c2.6 0 5.3-.5 7.8-1.3 1.2-.4 2.6-1 3.8-1.7-1.6-2.1-2.4-4.7-2.6-7.3-.3-3.5.4-8.1 2.8-10.8l1.2-1.4 1.4 1.1c3.6 2.9 6.5 6.8 7.1 11.4 4.3-1.3 9.3-1 13.1 1.2l1.5.9-.8 1.6c-3.2 6.2-9.9 8.2-16.4 7.8-9.8 24.3-31 35.8-56.8 35.8-13.3 0-25.5-5-32.5-16.8l-.1-.2-1-2.1c-2.4-5.2-3.1-10.9-2.6-16.6l.2-1.7h9.6V50.8h11.3V39.6h22.5V28.3h13.5v22.5z" />
        <path fill="#3D86FF"
          d="M110.4 55.1c.8-5.9-3.6-10.5-6.4-12.7-3.1 3.6-3.6 13.2 1.3 17.2-2.8 2.4-8.5 4.7-14.5 4.7H18.6c-.6 6.2.5 11.9 3 16.8l.8 1.5c.5.9 1.1 1.7 1.7 2.6 3 .2 5.7.3 8.2.2 4.9-.1 8.9-.7 12-1.7.5-.2.9.1 1.1.5.2.5-.1.9-.5 1.1-.4.1-.8.3-1.3.4-2.4.7-5 1.1-8.3 1.3h-.6c-1.3.1-2.7.1-4.2.1-1.6 0-3.1 0-4.9-.1 6 6.8 15.4 10.8 27.2 10.8 25 0 46.2-11.1 55.5-35.9 6.7.7 13.1-1 16-6.7-4.5-2.7-10.5-1.8-13.9-.1z" />
        <path fill="#3D86FF"
          d="M110.4 55.1c.8-5.9-3.6-10.5-6.4-12.7-3.1 3.6-3.6 13.2 1.3 17.2-2.8 2.4-8.5 4.7-14.5 4.7h-68c-.3 9.5 3.2 16.7 9.5 21 4.9-.1 8.9-.7 12-1.7.5-.2.9.1 1.1.5.2.5-.1.9-.5 1.1-.4.1-.8.3-1.3.4-2.4.7-5.2 1.2-8.5 1.4l-.1-.1c8.5 4.4 20.8 4.3 35-1.1 15.8-6.1 30.6-17.7 40.9-30.9-.2.1-.4.1-.5.2z" />
        <path fill="#3D86FF"
          d="M18.7 71.8c.4 3.3 1.4 6.4 2.9 9.3l.8 1.5c.5.9 1.1 1.7 1.7 2.6 3 .2 5.7.3 8.2.2 4.9-.1 8.9-.7 12-1.7.5-.2.9.1 1.1.5.2.5-.1.9-.5 1.1-.4.1-.8.3-1.3.4-2.4.7-5.2 1.2-8.5 1.4h-.4c-1.3.1-2.7.1-4.1.1-1.6 0-3.2 0-4.9-.1 6 6.8 15.5 10.8 27.3 10.8 21.4 0 40-8.1 50.8-26H18.7v-.1z" />
        <path fill="#3D86FF"
          d="M23.5 71.8c1.3 5.8 4.3 10.4 8.8 13.5 4.9-.1 8.9-.7 12-1.7.5-.2.9.1 1.1.5.2.5-.1.9-.5 1.1-.4.1-.8.3-1.3.4-2.4.7-5.2 1.2-8.6 1.4 8.5 4.4 20.8 4.3 34.9-1.1 8.5-3.3 16.8-8.2 24.2-14.1H23.5z" />
        <path fill-rule="evenodd" clip-rule="evenodd" fill="#3D86FF"
          d="M28.4 52.7h9.8v9.8h-9.8v-9.8zm.8.8h.8v8.1h-.8v-8.1zm1.4 0h.8v8.1h-.8v-8.1zm1.5 0h.8v8.1h-.8v-8.1zm1.5 0h.8v8.1h-.8v-8.1zm1.5 0h.8v8.1h-.8v-8.1zm1.5 0h.8v8.1h-.8v-8.1zm3-12h9.8v9.8h-9.8v-9.8zm.9.8h.8v8.1h-.8v-8.1zm1.4 0h.8v8.1h-.8v-8.1zm1.5 0h.8v8.1h-.8v-8.1zm1.5 0h.8v8.1h-.8v-8.1zm1.4 0h.8v8.1h-.8v-8.1zm1.5 0h.8v8.1h-.8v-8.1z" />
        <path fill-rule="evenodd" clip-rule="evenodd" fill="#3D86FF"
          d="M39.6 52.7h9.8v9.8h-9.8v-9.8zm.9.8h.8v8.1h-.8v-8.1zm1.4 0h.8v8.1h-.8v-8.1zm1.5 0h.8v8.1h-.8v-8.1zm1.5 0h.8v8.1h-.8v-8.1zm1.4 0h.8v8.1h-.8v-8.1zm1.5 0h.8v8.1h-.8v-8.1z" />
        <path fill-rule="evenodd" clip-rule="evenodd" fill="#3D86FF"
          d="M50.9 52.7h9.8v9.8h-9.8v-9.8zm.8.8h.8v8.1h-.8v-8.1zm1.5 0h.8v8.1h-.8v-8.1zm1.5 0h.8v8.1h-.8v-8.1zm1.4 0h.8v8.1h-.8v-8.1zm1.5 0h.8v8.1h-.8v-8.1zm1.5 0h.8v8.1h-.8v-8.1z" />
        <path fill-rule="evenodd" clip-rule="evenodd" fill="#3D86FF"
          d="M50.9 41.5h9.8v9.8h-9.8v-9.8zm.8.8h.8v8.1h-.8v-8.1zm1.5 0h.8v8.1h-.8v-8.1zm1.5 0h.8v8.1h-.8v-8.1zm1.4 0h.8v8.1h-.8v-8.1zm1.5 0h.8v8.1h-.8v-8.1zm1.5 0h.8v8.1h-.8v-8.1zm3.1 10.4H72v9.8h-9.8v-9.8zm.8.8h.8v8.1H63v-8.1zm1.5 0h.8v8.1h-.8v-8.1zm1.4 0h.8v8.1h-.8v-8.1zm1.5 0h.8v8.1h-.8v-8.1zm1.5 0h.8v8.1h-.8v-8.1zm1.5 0h.8v8.1h-.8v-8.1z" />
        <path fill-rule="evenodd" clip-rule="evenodd" fill="#3D86FF"
          d="M62.2 41.5H72v9.8h-9.8v-9.8zm.8.8h.8v8.1H63v-8.1zm1.5 0h.8v8.1h-.8v-8.1zm1.4 0h.8v8.1h-.8v-8.1zm1.5 0h.8v8.1h-.8v-8.1zm1.5 0h.8v8.1h-.8v-8.1zm1.5 0h.8v8.1h-.8v-8.1z" />
        <path fill-rule="evenodd" clip-rule="evenodd" fill="#3D86FF"
          d="M62.2 30.2H72V40h-9.8v-9.8zm.8.8h.8v8.1H63V31zm1.5 0h.8v8.1h-.8V31zm1.4 0h.8v8.1h-.8V31zm1.5 0h.8v8.1h-.8V31zm1.5 0h.8v8.1h-.8V31zm1.5 0h.8v8.1h-.8V31z" />
        <path fill-rule="evenodd" clip-rule="evenodd" fill="#3D86FF"
          d="M73.5 52.7h9.8v9.8h-9.8v-9.8zm.8.8h.8v8.1h-.8v-8.1zm1.4 0h.8v8.1h-.8v-8.1zm1.5 0h.8v8.1h-.8v-8.1zm1.5 0h.8v8.1h-.8v-8.1zm1.5 0h.8v8.1h-.8v-8.1zm1.5 0h.8v8.1h-.8v-8.1z" />
        <path fill-rule="evenodd" clip-rule="evenodd" fill="#3D86FF"
          d="M48.8 78.3c1.5 0 2.7 1.2 2.7 2.7 0 1.5-1.2 2.7-2.7 2.7-1.5 0-2.7-1.2-2.7-2.7 0-1.5 1.2-2.7 2.7-2.7" />
        <path fill-rule="evenodd" clip-rule="evenodd" fill="#3D86FF"
          d="M48.8 79.1c.2 0 .5 0 .7.1-.2.1-.4.4-.4.7 0 .4.4.8.8.8.3 0 .6-.2.7-.4.1.2.1.5.1.7 0 1.1-.9 1.9-1.9 1.9-1.1 0-1.9-.9-1.9-1.9 0-1 .8-1.9 1.9-1.9M1.1 72.8h125.4c-2.7-.7-8.6-1.6-7.7-5.2-5 5.7-16.9 4-20 1.2-3.4 4.9-23 3-24.3-.8-4.2 5-17.3 5-21.5 0-1.4 3.8-21 5.7-24.3.8-3 2.8-15 4.5-20-1.2 1.1 3.5-4.9 4.5-7.6 5.2" />
        <path fill="#3D86FF"
          d="M56 97.8c-6.7-3.2-10.3-7.5-12.4-12.2-2.5.7-5.5 1.2-8.9 1.4-1.3.1-2.7.1-4.1.1-1.7 0-3.4 0-5.2-.1 6 6 13.6 10.7 27.5 10.8H56z" />
        <path fill="#3D86FF" d="M46.1 89.9c-.9-1.3-1.8-2.8-2.5-4.3-2.5.7-5.5 1.2-8.9 1.4 2.3 1.2 5.7 2.4 11.4 2.9z" />
      </g>
      <line x1="25" y1="125" x2="105" y2="125" stroke="#3D86FF" stroke-width="3" stroke-linecap="round" />
    </g>

    <!-- Git -->
    <g transform="translate(182,92)">
      <rect width="130" height="140" rx="16" fill="#0b0f1a" stroke="#1e293b" stroke-width="1" />
      <text x="65" y="32" text-anchor="middle" font-size="14" font-weight="500"
        font-family="Inter, Segoe UI, system-ui, sans-serif" fill="#3D86FF">
        Git
      </text>
      <g transform="translate(38, 52) scale(0.4)">
        <path fill=" #3D86FF"
          d="M124.737 58.378L69.621 3.264c-3.172-3.174-8.32-3.174-11.497 0L46.68 14.71l14.518 14.518c3.375-1.139 7.243-.375 9.932 2.314 2.703 2.706 3.461 6.607 2.294 9.993l13.992 13.993c3.385-1.167 7.292-.413 9.994 2.295 3.78 3.777 3.78 9.9 0 13.679a9.673 9.673 0 01-13.683 0 9.677 9.677 0 01-2.105-10.521L68.574 47.933l-.002 34.341a9.708 9.708 0 012.559 1.828c3.778 3.777 3.778 9.898 0 13.683-3.779 3.777-9.904 3.777-13.679 0-3.778-3.784-3.778-9.905 0-13.683a9.65 9.65 0 013.167-2.11V47.333a9.581 9.581 0 01-3.167-2.111c-2.862-2.86-3.551-7.06-2.083-10.576L41.056 20.333 3.264 58.123a8.133 8.133 0 000 11.5l55.117 55.114c3.174 3.174 8.32 3.174 11.499 0l54.858-54.858a8.135 8.135 0 00-.001-11.501z" />
      </g>
      <line x1="25" y1="125" x2="105" y2="125" stroke="#3D86FF" stroke-width="3" stroke-linecap="round" />
    </g>
  </g>

  <!-- Platforms -->
  <g transform="translate(1202,0)">
    <!-- container -->
    <rect width="194" height="584" rx="24" fill="#020617" stroke="#1e293b" stroke-width="1" />

    <!-- Title -->
    <text x="32" y="56" font-size="28" font-weight="600" font-family="Inter, Segoe UI, system-ui, sans-serif"
      fill="#e5e7eb">
      Platforms
    </text>

    <!-- Divider -->
    <line x1="32" y1="72" x2="162" y2="72" stroke="#1e293b" stroke-width="1" />

    <!-- Wordpress -->
    <g transform="translate(32,92)">
      <rect width="130" height="140" rx="16" fill="#0b0f1a" stroke="#1e293b" stroke-width="1" />
      <text x="65" y="32" text-anchor="middle" font-size="14" font-weight="500"
        font-family="Inter, Segoe UI, system-ui, sans-serif" fill="#3D86FF">
        Windows
      </text>
      <g transform="translate(38, 52) scale(0.4)">
        <path fill="#3D86FF"
          d="M67.328 67.331h60.669V128H67.328zm-67.325 0h60.669V128H.003zM67.328 0h60.669v60.669H67.328zM.003 0h60.669v60.669H.003z" />
      </g>

      <line x1="25" y1="125" x2="105" y2="125" stroke="#3D86FF" stroke-width="3" stroke-linecap="round" />
    </g>

    <!-- VSCode -->
    <g transform="translate(32,252)">
      <rect width="130" height="140" rx="16" fill="#0b0f1a" stroke="#1e293b" stroke-width="1" />
      <text x="65" y="32" text-anchor="middle" font-size="14" font-weight="500"
        font-family="Inter, Segoe UI, system-ui, sans-serif" fill="#3D86FF">
        VSCode
      </text>
      <g transform="translate(38, 52) scale(0.4)">
        <mask id="a" width="128" height="128" x="0" y="0" maskUnits="userSpaceOnUse" style="mask-type:alpha">
          <path fill="#3D86FF" fill-rule="evenodd"
            d="M90.767 127.126a7.968 7.968 0 0 0 6.35-.244l26.353-12.681a8 8 0 0 0 4.53-7.209V21.009a8 8 0 0 0-4.53-7.21L97.117 1.12a7.97 7.97 0 0 0-9.093 1.548l-50.45 46.026L15.6 32.013a5.328 5.328 0 0 0-6.807.302l-7.048 6.411a5.335 5.335 0 0 0-.006 7.888L20.796 64 1.74 81.387a5.336 5.336 0 0 0 .006 7.887l7.048 6.411a5.327 5.327 0 0 0 6.807.303l21.974-16.68 50.45 46.025a7.96 7.96 0 0 0 2.743 1.793Zm5.252-92.183L57.74 64l38.28 29.058V34.943Z"
            clip-rule="evenodd" />
        </mask>
        <g mask="url(#a)">
          <path fill="#3D86FF"
            d="M123.471 13.82 97.097 1.12A7.973 7.973 0 0 0 88 2.668L1.662 81.387a5.333 5.333 0 0 0 .006 7.887l7.052 6.411a5.333 5.333 0 0 0 6.811.303l103.971-78.875c3.488-2.646 8.498-.158 8.498 4.22v-.306a8.001 8.001 0 0 0-4.529-7.208Z" />
          <g filter="url(#b)">
            <path fill="#3D86FF"
              d="m123.471 114.181-26.374 12.698A7.973 7.973 0 0 1 88 125.333L1.662 46.613a5.333 5.333 0 0 1 .006-7.887l7.052-6.411a5.333 5.333 0 0 1 6.811-.303l103.971 78.874c3.488 2.647 8.498.159 8.498-4.219v.306a8.001 8.001 0 0 1-4.529 7.208Z" />
          </g>
          <g filter="url(#c)">
            <path fill="#3D86FF"
              d="M97.098 126.882A7.977 7.977 0 0 1 88 125.333c2.952 2.952 8 .861 8-3.314V5.98c0-4.175-5.048-6.266-8-3.313a7.977 7.977 0 0 1 9.098-1.549L123.467 13.8A8 8 0 0 1 128 21.01v85.982a8 8 0 0 1-4.533 7.21l-26.369 12.681Z" />
          </g>
          <path fill="url(#d)" fill-rule="evenodd"
            d="M90.69 127.126a7.968 7.968 0 0 0 6.349-.244l26.353-12.681a8 8 0 0 0 4.53-7.21V21.009a8 8 0 0 0-4.53-7.21L97.039 1.12a7.97 7.97 0 0 0-9.093 1.548l-50.45 46.026-21.974-16.68a5.328 5.328 0 0 0-6.807.302l-7.048 6.411a5.336 5.336 0 0 0-.006 7.888L20.718 64 1.662 81.386a5.335 5.335 0 0 0 .006 7.888l7.048 6.411a5.328 5.328 0 0 0 6.807.303l21.975-16.681 50.45 46.026a7.959 7.959 0 0 0 2.742 1.793Zm5.252-92.184L57.662 64l38.28 29.057V34.943Z"
            clip-rule="evenodd" opacity="0.25" style="mix-blend-mode:overlay" />
        </g>
        <defs>
          <filter id="b" width="144.744" height="113.408" x="-8.41115" y="22.5944" color-interpolation-filters="sRGB"
            filterUnits="userSpaceOnUse">
            <feFlood flood-opacity="0" result="BackgroundImageFix" />
            <feColorMatrix in="SourceAlpha" result="hardAlpha" values="0 0 0 0 0 0 0 0 0 0 0 0 0 0 0 0 0 0 127 0" />
            <feOffset />
            <feGaussianBlur stdDeviation="4.16667" />
            <feColorMatrix values="0 0 0 0 0 0 0 0 0 0 0 0 0 0 0 0 0 0 0.25 0" />
            <feBlend in2="BackgroundImageFix" mode="overlay" result="effect1_dropShadow_1_36" />
            <feBlend in="SourceGraphic" in2="effect1_dropShadow_1_36" result="shape" />
          </filter>
          <filter id="c" width="56.6667" height="144.007" x="79.6667" y="-8.0035" color-interpolation-filters="sRGB"
            filterUnits="userSpaceOnUse">
            <feFlood flood-opacity="0" result="BackgroundImageFix" />
            <feColorMatrix in="SourceAlpha" result="hardAlpha" values="0 0 0 0 0 0 0 0 0 0 0 0 0 0 0 0 0 0 127 0" />
            <feOffset />
            <feGaussianBlur stdDeviation="4.16667" />
            <feColorMatrix values="0 0 0 0 0 0 0 0 0 0 0 0 0 0 0 0 0 0 0.25 0" />
            <feBlend in2="BackgroundImageFix" mode="overlay" result="effect1_dropShadow_1_36" />
            <feBlend in="SourceGraphic" in2="effect1_dropShadow_1_36" result="shape" />
          </filter>
          <linearGradient id="d" x1="63.9222" x2="63.9222" y1="0.329902" y2="127.67" gradientUnits="userSpaceOnUse">
            <stop stop-color="#3D86FF" />
            <stop offset="1" stop-color="#3D86FF" stop-opacity="0" />
          </linearGradient>
        </defs>
      </g>

      <line x1="25" y1="125" x2="105" y2="125" stroke="#3D86FF" stroke-width="3" stroke-linecap="round" />
    </g>

    <!-- PyCharm -->
    <g transform="translate(32,412)">
      <rect width="130" height="140" rx="16" fill="#0b0f1a" stroke="#1e293b" stroke-width="1" />
      <text x="65" y="32" text-anchor="middle" font-size="14" font-weight="500"
        font-family="Inter, Segoe UI, system-ui, sans-serif" fill="#3D86FF">
        PyCharm
      </text>
      <g transform="translate(20, 32) scale(0.7)" fill="#3D86FF">
        <path d="M27.429 27.429h73.143v73.143H27.429z" />
        <path fill="#0b0f1a"
          d="M36.547 86.747h27.429v4.571H36.547zm.024-50.176h11.215c6.534 0 10.496 3.877 10.496 9.472v.073c0 6.339-4.937 9.63-11.081 9.63h-4.534v8.216h-6.095zm10.801 13.812c3.011 0 4.779-1.792 4.779-4.145v-.073c0-2.706-1.877-4.157-4.876-4.157h-4.608v8.375zm14.178-.024v-.073A13.909 13.909 0 0 1 75.825 36.12a14.129 14.129 0 0 1 10.801 4.218l-3.828 4.425a10.155 10.155 0 0 0-7.01-3.096c-4.62 0-7.948 3.84-7.948 8.533v.085c0 4.693 3.255 8.606 7.948 8.606 3.133 0 5.047-1.219 7.205-3.206l3.828 3.864a13.97 13.97 0 0 1-11.227 4.876 13.836 13.836 0 0 1-14.043-14.068" />
      </g>

      <line x1="25" y1="125" x2="105" y2="125" stroke="#3D86FF" stroke-width="3" stroke-linecap="round" />
    </g>
  </g>
</svg>