<svg width="2400" height="1400" viewBox="0 0 2400 1400" xmlns="http://www.w3.org/2000/svg">
  <defs>
    <!-- Animated tech gradient -->
    <linearGradient id="techShift"
                    gradientUnits="userSpaceOnUse"
                    x1="0" y1="0"
                    x2="400" y2="0"
                    spreadMethod="repeat">
      <stop offset="0%" stop-color="#4f7cff"/>
      <stop offset="45%" stop-color="#3b82ff"/>
      <stop offset="80%" stop-color="#5b5fff"/>
      <stop offset="100%" stop-color="#4f7cff"/>

      <animateTransform
          attributeName="gradientTransform"
          type="translate"
          from="0 0"
          to="400 0"
          dur="40s"
          repeatCount="indefinite"/>
    </linearGradient>

    <!-- Glow filters -->
    <filter id="softGlow" x="-50%" y="-50%" width="200%" height="200%">
      <feGaussianBlur stdDeviation="4" result="blur"/>
      <feMerge>
        <feMergeNode in="blur"/>
        <feMergeNode in="SourceGraphic"/>
      </feMerge>
    </filter>

    <radialGradient id="particleGlow">
      <stop offset="0%" stop-color="#5ea0ff" stop-opacity="0.9"/>
      <stop offset="100%" stop-color="#5ea0ff" stop-opacity="0"/>
    </radialGradient>

    <!-- Static gradient for the main timeline line -->
    <linearGradient id="lineGrad">
      <stop offset="0%" stop-color="#335dff"/>
      <stop offset="50%" stop-color="#4f7cff"/>
      <stop offset="100%" stop-color="#5b5fff"/>
    </linearGradient>
  </defs>

  <!-- Faint grid pattern -->
  <g stroke="#3b82f6" stroke-width="1" opacity="0.08">
    <g>
      <line x1="120" y1="0" x2="120" y2="1400"/>
      <line x1="360" y1="0" x2="360" y2="1400"/>
      <line x1="600" y1="0" x2="600" y2="1400"/>
      <line x1="840" y1="0" x2="840" y2="1400"/>
      <line x1="1080" y1="0" x2="1080" y2="1400"/>
      <line x1="1320" y1="0" x2="1320" y2="1400"/>
      <line x1="1560" y1="0" x2="1560" y2="1400"/>
      <line x1="1800" y1="0" x2="1800" y2="1400"/>
      <line x1="2040" y1="0" x2="2040" y2="1400"/>
      <line x1="2280" y1="0" x2="2280" y2="1400"/>
    </g>
    <g>
      <line x1="0" y1="132" x2="2400" y2="132"/>
      <line x1="0" y1="335" x2="2400" y2="335"/>
      <line x1="0" y1="537" x2="2400" y2="537"/>
      <line x1="0" y1="739" x2="2400" y2="739"/>
      <line x1="0" y1="941" x2="2400" y2="941"/>
      <line x1="0" y1="1143" x2="2400" y2="1143"/>
      <line x1="0" y1="1330" x2="2400" y2="1330"/>
    </g>
  </g>

  <!-- Decorative circuit lines: top-right corner -->
  <g fill="none" stroke="url(#techShift)" stroke-width="1.8" opacity="0.3" stroke-linecap="round">
    <path d="M2400,62 L2280,62 L2280,140 L2196,140 L2196,218"/>
    <path d="M2400,218 L2352,218 L2352,311 L2256,311"/>
    <path d="M2400,405 L2328,405 L2328,327"/>
    <circle cx="2196" cy="218" r="5" fill="#22d3ee"/>
    <circle cx="2256" cy="311" r="5" fill="#3b82f6"/>
    <circle cx="2328" cy="327" r="5" fill="#6366f1"/>
    <circle cx="2280" cy="140" r="4" fill="#22d3ee"/>
  </g>

  <!-- Decorative circuit lines: bottom-left corner -->
  <g fill="none" stroke="url(#techShift)" stroke-width="1.8" opacity="0.3" stroke-linecap="round">
    <path d="M0,1338 L72,1338 L72,1261 L168,1261 L168,1183"/>
    <path d="M0,1198 L48,1198 L48,1105 L144,1105"/>
    <path d="M0,1400 L120,1400 L120,1307"/>
    <circle cx="168" cy="1183" r="5" fill="#22d3ee"/>
    <circle cx="144" cy="1105" r="5" fill="#3b82f6"/>
    <circle cx="120" cy="1307" r="5" fill="#6366f1"/>
    <circle cx="72" cy="1261" r="4" fill="#22d3ee"/>
  </g>

  <!-- Floating particles -->
  <g>
    <circle cx="180" cy="249" r="3.5" fill="url(#particleGlow)">
      <animate attributeName="opacity" values="0.2;0.9;0.2" dur="6s" repeatCount="indefinite"/>
      <animate attributeName="cy" values="249;220;249" dur="9s" repeatCount="indefinite"/>
    </circle>
    <circle cx="480" cy="1151" r="3" fill="url(#particleGlow)">
      <animate attributeName="opacity" values="0.3;0.8;0.3" dur="5s" repeatCount="indefinite"/>
      <animate attributeName="cy" values="1151;1120;1151" dur="7s" repeatCount="indefinite"/>
    </circle>
    <circle cx="840" cy="202" r="4" fill="url(#particleGlow)">
      <animate attributeName="opacity" values="0.2;0.7;0.2" dur="7s" repeatCount="indefinite"/>
      <animate attributeName="cy" values="202;172;202" dur="10s" repeatCount="indefinite"/>
    </circle>
    <circle cx="1272" cy="1252" r="3.5" fill="url(#particleGlow)">
      <animate attributeName="opacity" values="0.25;0.85;0.25" dur="6.5s" repeatCount="indefinite"/>
      <animate attributeName="cy" values="1252;1222;1252" dur="8s" repeatCount="indefinite"/>
    </circle>
    <circle cx="1620" cy="265" r="3" fill="url(#particleGlow)">
      <animate attributeName="opacity" values="0.3;0.9;0.3" dur="5.5s" repeatCount="indefinite"/>
      <animate attributeName="cy" values="265;295;265" dur="9s" repeatCount="indefinite"/>
    </circle>
    <circle cx="1944" cy="1151" r="4" fill="url(#particleGlow)">
      <animate attributeName="opacity" values="0.2;0.8;0.2" dur="6s" repeatCount="indefinite"/>
      <animate attributeName="cy" values="1151;1181;1151" dur="10s" repeatCount="indefinite"/>
    </circle>
    <circle cx="2220" cy="708" r="3" fill="url(#particleGlow)">
      <animate attributeName="opacity" values="0.2;0.7;0.2" dur="4.5s" repeatCount="indefinite"/>
      <animate attributeName="cx" values="2220;2188;2220" dur="8s" repeatCount="indefinite"/>
    </circle>
    <circle cx="90" cy="708" r="3" fill="url(#particleGlow)">
      <animate attributeName="opacity" values="0.2;0.7;0.2" dur="5s" repeatCount="indefinite"/>
      <animate attributeName="cx" values="90;122;90" dur="9s" repeatCount="indefinite"/>
    </circle>
    <circle cx="1170" cy="708" r="3.5" fill="url(#particleGlow)">
      <animate attributeName="opacity" values="0.25;0.75;0.25" dur="5s" repeatCount="indefinite"/>
      <animate attributeName="cy" values="708;686;708" dur="7s" repeatCount="indefinite"/>
    </circle>
  </g>

  <!-- Main timeline line -->
  <g>
    <line x1="120" y1="700" x2="2280" y2="700" stroke="#3b82f6" stroke-width="22" stroke-linecap="round" opacity="0.10"/>
    <line x1="120" y1="700" x2="2280" y2="700" stroke="#3b82f6" stroke-width="12" stroke-linecap="round" opacity="0.18"/>
    <line x1="120" y1="700" x2="2280" y2="700" stroke="url(#lineGrad)" stroke-width="6" stroke-linecap="round"/>
  </g>

  <!-- ============================================================ -->
  <!-- Milestone 1: 2021 - Started Programming Journey (TOP) -->
  <!-- ============================================================ -->
  <g transform="translate(300,0)">
    <line x1="0" y1="586" x2="0" y2="689" stroke="#3b82f6" stroke-width="1.8" stroke-dasharray="5 6" opacity="0.45"/>
    <circle cx="0" cy="700" r="11" fill="#0b1424" stroke="url(#techShift)" stroke-width="2.4" filter="url(#softGlow)"/>

    <!-- icon -->
    <circle cx="0" cy="190" r="55" fill="#0b1424" stroke="url(#techShift)" stroke-width="3" filter="url(#softGlow)"/>
    <text x="0" y="207" text-anchor="middle" font-family="Consolas, Menlo, monospace" font-size="46" font-weight="700" fill="url(#techShift)">&lt;/&gt;</text>

    <!-- year -->
    <text x="0" y="305" text-anchor="middle" font-family="Segoe UI, Helvetica, Arial, sans-serif" font-size="54" font-weight="700" fill="#3b82f6">2021</text>

    <!-- title -->
    <text x="0" y="363" text-anchor="middle" font-family="Segoe UI, Helvetica, Arial, sans-serif" font-size="42" font-weight="700" fill="#e2e8f0">
      <tspan x="0" dy="0">Started</tspan>
      <tspan x="0" dy="49">Programming Journey</tspan>
    </text>

    <!-- divider -->
    <line x1="-45" y1="450" x2="45" y2="450" stroke="url(#techShift)" stroke-width="3"/>

    <!-- description -->
    <text x="0" y="488" text-anchor="middle" font-family="Segoe UI, Helvetica, Arial, sans-serif" font-size="32" fill="#94a3b8">
      <tspan x="0" dy="0">Started learning programming</tspan>
      <tspan x="0" dy="42">with Python and built my first</tspan>
      <tspan x="0" dy="42">applications using Django.</tspan>
    </text>
  </g>

  <!-- ============================================================ -->
  <!-- Milestone 2: 2022 - Technical High School @ UTFPR (BOTTOM) -->
  <!-- ============================================================ -->
  <g transform="translate(660,0)">
    <line x1="0" y1="711" x2="0" y2="767" stroke="#3b82f6" stroke-width="1.8" stroke-dasharray="5 6" opacity="0.45"/>
    <circle cx="0" cy="700" r="11" fill="#0b1424" stroke="url(#techShift)" stroke-width="2.4" filter="url(#softGlow)"/>

    <!-- year -->
    <text x="0" y="817" text-anchor="middle" font-family="Segoe UI, Helvetica, Arial, sans-serif" font-size="54" font-weight="700" fill="#3b82f6">2022</text>

    <!-- title -->
    <text x="0" y="875" text-anchor="middle" font-family="Segoe UI, Helvetica, Arial, sans-serif" font-size="42" font-weight="700" fill="#e2e8f0">
      <tspan x="0" dy="0">Technical High School</tspan>
      <tspan x="0" dy="49">@ UTFPR</tspan>
    </text>

    <!-- divider -->
    <line x1="-45" y1="962" x2="45" y2="962" stroke="url(#techShift)" stroke-width="3"/>

    <!-- description -->
    <text x="0" y="1000" text-anchor="middle" font-family="Segoe UI, Helvetica, Arial, sans-serif" font-size="32" fill="#94a3b8">
      <tspan x="0" dy="0">Started the Integrated Technical</tspan>
      <tspan x="0" dy="42">Program in Information Technology,</tspan>
      <tspan x="0" dy="42">focusing on software development</tspan>
      <tspan x="0" dy="42">and databases.</tspan>
    </text>

    <!-- icon: graduation cap -->
    <circle cx="0" cy="1240" r="55" fill="#0b1424" stroke="url(#techShift)" stroke-width="3" filter="url(#softGlow)"/>
    <g transform="translate(0,1240)">
      <polygon points="-36,-2 0,-19 36,-2 0,14" fill="url(#techShift)"/>
      <rect x="-19" y="6" width="38" height="12" rx="2" fill="url(#techShift)"/>
      <line x1="28" y1="-2" x2="34" y2="19" stroke="url(#techShift)" stroke-width="3"/>
      <circle cx="34" cy="22" r="3" fill="url(#techShift)"/>
    </g>
  </g>

  <!-- ============================================================ -->
  <!-- Milestone 3: 2022 - Undergraduate Research Fellow (TOP) -->
  <!-- ============================================================ -->
  <g transform="translate(1020,0)">
    <line x1="0" y1="628" x2="0" y2="689" stroke="#3b82f6" stroke-width="1.8" stroke-dasharray="5 6" opacity="0.45"/>
    <circle cx="0" cy="700" r="11" fill="#0b1424" stroke="url(#techShift)" stroke-width="2.4" filter="url(#softGlow)"/>

    <!-- icon: flask -->
    <circle cx="0" cy="190" r="55" fill="#0b1424" stroke="url(#techShift)" stroke-width="3" filter="url(#softGlow)"/>
    <g transform="translate(0,190)">
      <rect x="-13" y="-30" width="28" height="7" fill="url(#techShift)"/>
      <path d="M-12,-24 L-12,-4 L-29,24 L29,24 L12,-4 L12,-24 Z" fill="none" stroke="url(#techShift)" stroke-width="3.5" stroke-linejoin="round"/>
      <circle cx="-8" cy="12" r="2.8" fill="url(#techShift)" opacity="0.85"/>
      <circle cx="6" cy="8" r="2" fill="url(#techShift)" opacity="0.85"/>
      <circle cx="0" cy="17" r="1.7" fill="url(#techShift)" opacity="0.85"/>
    </g>

    <!-- year -->
    <text x="0" y="305" text-anchor="middle" font-family="Segoe UI, Helvetica, Arial, sans-serif" font-size="54" font-weight="700" fill="#3b82f6">2022</text>

    <!-- title -->
    <text x="0" y="363" text-anchor="middle" font-family="Segoe UI, Helvetica, Arial, sans-serif" font-size="42" font-weight="700" fill="#e2e8f0">
      <tspan x="0" dy="0">Undergraduate</tspan>
      <tspan x="0" dy="49">Research Fellow</tspan>
    </text>

    <!-- divider -->
    <line x1="-45" y1="450" x2="45" y2="450" stroke="url(#techShift)" stroke-width="3"/>

    <!-- description -->
    <text x="0" y="488" text-anchor="middle" font-family="Segoe UI, Helvetica, Arial, sans-serif" font-size="32" fill="#94a3b8">
      <tspan x="0" dy="0">Conducted research on</tspan>
      <tspan x="0" dy="42">Data Quality and Denial</tspan>
      <tspan x="0" dy="42">Constraints using Python</tspan>
      <tspan x="0" dy="42">and OpenClean-Metanome.</tspan>
    </text>
  </g>

  <!-- ============================================================ -->
  <!-- Milestone 4: 2024 - Software Development Intern (BOTTOM) -->
  <!-- ============================================================ -->
  <g transform="translate(1380,0)">
    <line x1="0" y1="711" x2="0" y2="767" stroke="#3b82f6" stroke-width="1.8" stroke-dasharray="5 6" opacity="0.45"/>
    <circle cx="0" cy="700" r="11" fill="#0b1424" stroke="url(#techShift)" stroke-width="2.4" filter="url(#softGlow)"/>

    <!-- year -->
    <text x="0" y="817" text-anchor="middle" font-family="Segoe UI, Helvetica, Arial, sans-serif" font-size="54" font-weight="700" fill="#3b82f6">2024</text>

    <!-- title -->
    <text x="0" y="875" text-anchor="middle" font-family="Segoe UI, Helvetica, Arial, sans-serif" font-size="42" font-weight="700" fill="#e2e8f0">
      <tspan x="0" dy="0">Software Development</tspan>
      <tspan x="0" dy="49">Intern</tspan>
    </text>

    <!-- divider -->
    <line x1="-45" y1="962" x2="45" y2="962" stroke="url(#techShift)" stroke-width="3"/>

    <!-- description -->
    <text x="0" y="1000" text-anchor="middle" font-family="Segoe UI, Helvetica, Arial, sans-serif" font-size="32" fill="#94a3b8">
      <tspan x="0" dy="0">Developed web and mobile</tspan>
      <tspan x="0" dy="42">applications using React,</tspan>
      <tspan x="0" dy="42">Next.js, React Native</tspan>
      <tspan x="0" dy="42">and Node.js.</tspan>
    </text>

    <!-- icon: briefcase -->
    <circle cx="0" cy="1240" r="55" fill="#0b1424" stroke="url(#techShift)" stroke-width="3" filter="url(#softGlow)"/>
    <g transform="translate(0,1240)">
      <path d="M-14,-14 v-8 a14,11 0 0 1 29,0 v8" fill="none" stroke="url(#techShift)" stroke-width="3.5"/>
      <rect x="-34" y="-14" width="67" height="41" rx="6" fill="none" stroke="url(#techShift)" stroke-width="3.5"/>
      <line x1="-34" y1="4" x2="34" y2="4" stroke="url(#techShift)" stroke-width="2" opacity="0.7"/>
      <rect x="-5" y="0" width="10" height="10" rx="2" fill="url(#techShift)"/>
    </g>
  </g>

  <!-- ============================================================ -->
  <!-- Milestone 5: 2026 - B.Sc. in Computer Science @ UTFPR (TOP) -->
  <!-- ============================================================ -->
  <g transform="translate(1740,0)">
    <line x1="0" y1="628" x2="0" y2="689" stroke="#3b82f6" stroke-width="1.8" stroke-dasharray="5 6" opacity="0.45"/>
    <circle cx="0" cy="700" r="11" fill="#0b1424" stroke="url(#techShift)" stroke-width="2.4" filter="url(#softGlow)"/>

    <!-- icon: graduation cap -->
    <circle cx="0" cy="190" r="55" fill="#0b1424" stroke="url(#techShift)" stroke-width="3" filter="url(#softGlow)"/>
    <g transform="translate(0,190)">
      <polygon points="-36,-2 0,-19 36,-2 0,14" fill="url(#techShift)"/>
      <rect x="-19" y="6" width="38" height="12" rx="2" fill="url(#techShift)"/>
      <line x1="28" y1="-2" x2="34" y2="19" stroke="url(#techShift)" stroke-width="3"/>
      <circle cx="34" cy="22" r="3" fill="url(#techShift)"/>
    </g>

    <!-- year -->
    <text x="0" y="305" text-anchor="middle" font-family="Segoe UI, Helvetica, Arial, sans-serif" font-size="54" font-weight="700" fill="#3b82f6">2026</text>

    <!-- title -->
    <text x="0" y="363" text-anchor="middle" font-family="Segoe UI, Helvetica, Arial, sans-serif" font-size="42" font-weight="700" fill="#e2e8f0">
      <tspan x="0" dy="0">B.Sc. in Computer</tspan>
      <tspan x="0" dy="49">Science @ UTFPR</tspan>
    </text>

    <!-- divider -->
    <line x1="-45" y1="450" x2="45" y2="450" stroke="url(#techShift)" stroke-width="3"/>

    <!-- description -->
    <text x="0" y="488" text-anchor="middle" font-family="Segoe UI, Helvetica, Arial, sans-serif" font-size="32" fill="#94a3b8">
      <tspan x="0" dy="0">Started a Computer Science degree</tspan>
      <tspan x="0" dy="42">focused on Data Science,</tspan>
      <tspan x="0" dy="42">Machine Learning and</tspan>
      <tspan x="0" dy="42">Data Quality.</tspan>
    </text>
  </g>

  <!-- ============================================================ -->
  <!-- Milestone 6: 2026 - High-Performance Data Processing Research (BOTTOM) -->
  <!-- ============================================================ -->
  <g transform="translate(2100,0)">
    <line x1="0" y1="711" x2="0" y2="767" stroke="#3b82f6" stroke-width="1.8" stroke-dasharray="5 6" opacity="0.45"/>
    <circle cx="0" cy="700" r="11" fill="#0b1424" stroke="url(#techShift)" stroke-width="2.4" filter="url(#softGlow)"/>

    <!-- year -->
    <text x="0" y="817" text-anchor="middle" font-family="Segoe UI, Helvetica, Arial, sans-serif" font-size="54" font-weight="700" fill="#3b82f6">2026</text>

    <!-- title -->
    <text x="0" y="875" text-anchor="middle" font-family="Segoe UI, Helvetica, Arial, sans-serif" font-size="42" font-weight="700" fill="#e2e8f0">
      <tspan x="0" dy="0">High-Performance</tspan>
      <tspan x="0" dy="49">Data Processing Research</tspan>
    </text>

    <!-- divider -->
    <line x1="-45" y1="962" x2="45" y2="962" stroke="url(#techShift)" stroke-width="3"/>

    <!-- description -->
    <text x="0" y="1000" text-anchor="middle" font-family="Segoe UI, Helvetica, Arial, sans-serif" font-size="32" fill="#94a3b8">
      <tspan x="0" dy="0">Research on high-performance</tspan>
      <tspan x="0" dy="42">data processing and data</tspan>
      <tspan x="0" dy="42">visualization for large-scale</tspan>
      <tspan x="0" dy="42">data analysis.</tspan>
    </text>

    <!-- icon: microscope -->
    <circle cx="0" cy="1240" r="55" fill="#0b1424" stroke="url(#techShift)" stroke-width="3" filter="url(#softGlow)"/>
    <g transform="translate(0,1240)">
      <ellipse cx="0" cy="25" rx="28" ry="6" fill="none" stroke="url(#techShift)" stroke-width="3.5"/>
      <line x1="0" y1="25" x2="0" y2="2" stroke="url(#techShift)" stroke-width="3.5"/>
      <path d="M0,2 L-17,-17" fill="none" stroke="url(#techShift)" stroke-width="3.5" stroke-linecap="round"/>
      <line x1="-17" y1="-17" x2="-17" y2="-30" stroke="url(#techShift)" stroke-width="3.5"/>
      <circle cx="11" cy="0" r="6" fill="none" stroke="url(#techShift)" stroke-width="2.6"/>
      <line x1="-12" y1="6" x2="10" y2="6" stroke="url(#techShift)" stroke-width="3.5"/>
    </g>
  </g>

</svg>